<svg id="Layer_1" data-name="Layer 1" xmlns="http://www.w3.org/2000/svg" viewBox="0 0 17.92 17.92"><defs><style>.cls-1{fill:#474747;}</style></defs><path class="cls-1" d="M11.46,17.92h-5C1.93,17.92,0,16,0,11.46v-5C0,1.93,1.93,0,6.46,0h5C16,0,17.92,1.93,17.92,6.46v5C17.92,16,16,17.92,11.46,17.92Zm-5-16.67c-3.84,0-5.21,1.37-5.21,5.21v5c0,3.84,1.37,5.21,5.21,5.21h5c3.84,0,5.21-1.37,5.21-5.21v-5c0-3.84-1.37-5.21-5.21-5.21Z"/><path class="cls-1" d="M9.58.63V17.29a.63.63,0,0,1-.62.63.64.64,0,0,1-.63-.63V.63A.63.63,0,0,1,9,0,.63.63,0,0,1,9.58.63Z"/><path class="cls-1" d="M.62,8.33H17.29a.64.64,0,0,1,.63.63.63.63,0,0,1-.63.62H.62A.62.62,0,0,1,0,9,.63.63,0,0,1,.62,8.33Z"/></svg>