<svg id="Layer_1" data-name="Layer 1" xmlns="http://www.w3.org/2000/svg" viewBox="0 0 17.92 17.92"><defs><style>.cls-1{fill:#474747;}</style></defs><path class="cls-1" d="M11.46,17.92h-5C1.93,17.92,0,16,0,11.46v-5C0,1.93,1.93,0,6.46,0h5C16,0,17.92,1.93,17.92,6.46v5C17.92,16,16,17.92,11.46,17.92Zm-5-16.67c-3.84,0-5.21,1.37-5.21,5.21v5c0,3.84,1.37,5.21,5.21,5.21h5c3.84,0,5.21-1.37,5.21-5.21v-5c0-3.84-1.37-5.21-5.21-5.21Z"/><path class="cls-1" d="M5.83,17.5a.62.62,0,0,1-.62-.62V1A.63.63,0,1,1,6.46,1V16.88A.63.63,0,0,1,5.83,17.5Z"/><path class="cls-1" d="M12.08,17.92a.61.61,0,0,1-.62-.59V.92a.63.63,0,0,1,1.25,0V17.33A.61.61,0,0,1,12.08,17.92Z"/><path class="cls-1" d="M17.33,12.25a.63.63,0,0,1-.62.63H.79a.63.63,0,0,1-.62-.63.62.62,0,0,1,.62-.62H16.71A.62.62,0,0,1,17.33,12.25Z"/><path class="cls-1" d="M17.75,6a.61.61,0,0,1-.58.63H.75A.61.61,0,0,1,.17,6a.6.6,0,0,1,.58-.62H17.17A.6.6,0,0,1,17.75,6Z"/></svg>