<svg version="1.1" xmlns="http://www.w3.org/2000/svg" xmlns:xlink="http://www.w3.org/1999/xlink" x="0px" y="0px" viewBox="0 0 1000 1000" enable-background="new 0 0 1000 1000" xml:space="preserve">
<metadata> Svg Vector Icons : http://www.onlinewebfonts.com/icon </metadata>
<g><g transform="translate(0.000000,511.000000) scale(0.100000,-0.100000)"><path d="M4298.5,4979.9c-114.9-36.3-207.6-100.8-268.1-187.5l-48.4-72.6l-6-4564c-2-3032,2-4590.3,16.1-4640.7c28.2-104.8,169.3-229.8,304.4-270.1c86.7-26.2,219.7-32.3,705.6-32.3c358.8,0,643.1,8.1,703.5,22.2c131,28.2,260.1,125,318.5,239.9l44.4,88.7V111.5v4547.9l-44.4,88.7c-58.4,114.9-187.5,211.7-318.5,239.9C5550.4,5022.3,4409.3,5014.2,4298.5,4979.9z"/><path d="M7882.8,2169.7c-86.7-28.2-209.7-96.8-256-147.2c-112.9-121-106.8,74.6-106.8-3326.3c0-3001.7,2-3134.8,38.3-3213.4c48.4-104.8,167.3-203.6,292.3-239.9c149.2-44.4,1290.2-44.4,1441.4,2c133,38.3,276.2,165.3,304.4,268.1c12.1,46.4,20.2,1153.1,20.2,3197.2c0,2995.7-2,3128.7-38.3,3207.3c-20.2,44.3-72.6,110.9-114.9,145.1c-139.1,116.9-207.7,125-903.2,123C8215.4,2185.8,7911,2177.8,7882.8,2169.7z"/><path d="M702.1-178.8c-125-34.3-233.8-118.9-280.2-221.8c-36.3-78.6-38.3-171.3-38.3-2048.2c0-1262,8.1-1991.7,20.2-2038.1c28.2-102.8,171.4-229.8,304.4-268.1c86.7-26.2,221.8-32.3,723.7-32.3c685.4,0,756,10.1,895.1,125c163.3,135.1,153.2-20.2,153.2,2203.4v1977.6l-44.4,88.7c-52.4,104.8-141.1,169.3-284.2,211.7C2016.4-140.5,849.2-138.5,702.1-178.8z"/></g></g>
</svg>