<svg version="1.1" xmlns="http://www.w3.org/2000/svg" xmlns:xlink="http://www.w3.org/1999/xlink" x="0px" y="0px" viewBox="0 0 1000 1000" enable-background="new 0 0 1000 1000" xml:space="preserve">
<metadata> Svg Vector Icons : http://www.onlinewebfonts.com/icon </metadata>
<g><g><g id="_x34__x5F_2"><g><path d="M973.8,450.9c0,0-190.4-237.9-473.8-237.9C216.6,213,26.2,450.9,26.2,450.9c-21.6,27-21.6,71.2,0,98.2c0,0,190.4,237.9,473.8,237.9c283.4,0,473.8-237.9,473.8-237.9C995.4,522.1,995.4,477.9,973.8,450.9z M924.8,509.7c-1.7,2.2-174.5,214.4-424.8,214.4c-248.7,0-423.1-212.3-424.8-214.4c-3.2-4-3.2-15.4-0.1-19.4c1.7-2.1,176.2-214.4,424.9-214.4c248.7,0,423.1,212.3,424.8,214.3C928,494.3,928,505.7,924.8,509.7z M500,317.9c-100.4,0-181.8,81.5-181.8,182.1c0,100.6,81.4,182.1,181.8,182.1c100.4,0,181.8-81.5,181.8-182.1C681.8,399.4,600.4,317.9,500,317.9z M500,619.2c-65.6,0-119-53.5-119-119.2c0-10.3,1.5-20.3,3.9-29.8c12.3,18,32.9,29.8,56.3,29.8c37.7,0,68.2-30.6,68.2-68.3c0-19.9-8.7-37.7-22.2-50.1c4.2-0.5,8.5-0.7,12.8-0.7c65.6,0,119,53.5,119,119.2C619,565.7,565.6,619.2,500,619.2z"/></g></g></g><g></g><g></g><g></g><g></g><g></g><g></g><g></g><g></g><g></g><g></g><g></g><g></g><g></g><g></g><g></g></g>
</svg>