<svg version="1.1" xmlns="http://www.w3.org/2000/svg" xmlns:xlink="http://www.w3.org/1999/xlink" x="0px" y="0px" viewBox="0 0 1000 1000" enable-background="new 0 0 1000 1000" xml:space="preserve">
<metadata> Svg Vector Icons : http://www.onlinewebfonts.com/icon </metadata>
<g><g><path d="M143.6,10h712.7c36.9,0,68.4,13.1,94.5,39.2c26.1,26.1,39.2,57.6,39.2,94.5v712.7c0,36.9-13.1,68.4-39.2,94.5c-26.1,26.1-57.6,39.2-94.5,39.2H143.6c-36.9,0-68.4-13.1-94.5-39.2C23.1,924.7,10,893.3,10,856.4V143.6c0-36.9,13.1-68.4,39.2-94.5C75.3,23.1,106.7,10,143.6,10z M900.9,741.2L678.2,518.4L295.7,900.9h560.6c12.3,0,22.8-4.3,31.5-13.1c8.7-8.7,13.1-19.2,13.1-31.5L900.9,741.2L900.9,741.2z M856.4,99.1H143.6c-12.3,0-22.8,4.4-31.5,13.1c-8.7,8.7-13.1,19.2-13.1,31.5v712.7c0,12.3,4.4,22.8,13.1,31.5c8.7,8.7,19.2,13.1,31.5,13.1h26.1l508.4-508.4l222.7,222.7V143.6c0-12.3-4.4-22.8-13.1-31.5C879.2,103.4,868.7,99.1,856.4,99.1L856.4,99.1z M321.8,188.2c36.9,0,68.4,13.1,94.5,39.2c26.1,26.1,39.2,57.6,39.2,94.5s-13.1,68.4-39.2,94.5c-26.1,26.1-57.6,39.2-94.5,39.2c-36.9,0-68.4-13.1-94.5-39.2c-26.1-26.1-39.2-57.6-39.2-94.5s13.1-68.4,39.2-94.5C253.4,201.2,284.9,188.2,321.8,188.2z M321.8,277.3c-12.3,0-22.8,4.4-31.5,13.1c-8.7,8.7-13.1,19.2-13.1,31.5c0,12.3,4.4,22.8,13.1,31.5c8.7,8.7,19.2,13.1,31.5,13.1s22.8-4.4,31.5-13.1c8.7-8.7,13.1-19.2,13.1-31.5c0-12.3-4.4-22.8-13.1-31.5C344.6,281.6,334.1,277.3,321.8,277.3z"/></g></g>
</svg>