<svg version="1.1" xmlns="http://www.w3.org/2000/svg" xmlns:xlink="http://www.w3.org/1999/xlink" x="0px" y="0px" viewBox="0 0 1000 1000" enable-background="new 0 0 1000 1000" xml:space="preserve">
<metadata> Svg Vector Icons : http://www.onlinewebfonts.com/icon </metadata>
<g><path d="M989.4,739.3V272.6c0-24.2-16.9-49.5-42-49.5h-63.9l1.2-6.4c0-31.3-26-57.5-58.5-57.5H174.9c-31.9,0-58.3,31.9-58.3,63.9l-0.2-1H55.8c-25.1,0-45.2,20.3-45.2,44.4v466.7H10c0,24.8,20.6,44.6,45.3,44.6h61v5.2c0,31.4,26,57.8,58.6,57.8h652c31.6,0,56.2-10.9,56.6-42.5h63.9c24.6,0,42.6-34.3,42.6-59H989.4z M116.5,734.4H52.6V265.7h63.9V734.4z M840.9,777c0,6.4-14.8,21.3-21.3,21.3H180.4c-6.5,0-21.3-14.8-21.3-21.3V223.1c0-6.4,9.2-18.5,15.7-18.5l5.6-2.8h639.1c6.4,0,21.3,14.9,21.3,21.3V777z M947.4,755.7h-63.9v-490l60.8-2c5,0,3.2-2.9,3.2,2v468.7C947.4,739.3,952.4,755.7,947.4,755.7z M400.6,484.2c43.9,0,79.5-34.7,79.5-77.4c0-42.7-35.7-77.4-79.5-77.4c-43.9,0-79.5,34.7-79.5,77.4C321,449.4,356.7,484.2,400.6,484.2z M400.6,368.1c21.9,0,39.8,17.3,39.8,38.7c0,21.3-17.9,38.7-39.8,38.7s-39.8-17.4-39.8-38.7C360.8,385.4,378.7,368.1,400.6,368.1z M773.5,426.7c-95.8,23.3-137.5,87.6-168,134.6c-24.2,37.2-39,58.3-65,58.3h0c-35.4,0-57-14.3-79.9-28.1c-24.3-14.7-49.5-29.9-88.5-29.9c-75.5,0-156.7,93.1-165.7,103.8l-4.6,51c0,10.7,8.9,18.1,19.9,18.1h556.8c11,0,19.9-7.4,19.9-18.1V445.5c0-6-2.8-11.6-7.6-15.3C785.8,426.5,779.5,425.2,773.5,426.7z M758.5,695.2h-517c24.8-27.7,85.2-95,130.5-95c27.7,0,46.2,11.1,67.5,24.1c25.1,15.1,53.6,32.4,99.6,33.9l2.9,0.1c47.6,0,71.6-37.1,97.1-76.3c26.6-41,56.4-79,119.4-102.3V695.2z"/></g>
</svg>