<?xml version="1.0" encoding="utf-8"?>
<!-- Svg Vector Icons : http://www.onlinewebfonts.com/icon -->
<!DOCTYPE svg PUBLIC "-//W3C//DTD SVG 1.1//EN" "http://www.w3.org/Graphics/SVG/1.1/DTD/svg11.dtd">
<svg version="1.1" xmlns="http://www.w3.org/2000/svg" xmlns:xlink="http://www.w3.org/1999/xlink" x="0px" y="0px" viewBox="0 0 1000 1000" enable-background="new 0 0 1000 1000" xml:space="preserve">
<metadata> Svg Vector Icons : http://www.onlinewebfonts.com/icon </metadata>
<g><g transform="translate(0.000000,511.000000) scale(0.100000,-0.100000)"><path d="M865.1,4775.7c-287.4-80.5-521.2-270.2-653.4-532.7C91,4003.5,96.7,4258.4,102.5,46.5l5.7-3838.2l46-115c118.8-297,310.4-494.4,601.7-620.9l118.8-49.8h4110.3c4003,0,4114.1,1.9,4223.3,36.4c291.2,95.8,536.5,341.1,647.7,645.8l44.1,122.6V107.9v3880.3l-46,124.6c-109.2,297-321.9,517.4-618.9,638.1l-101.6,42.2l-4091.1,3.8C1813.6,4798.7,934.1,4794.9,865.1,4775.7z M9139.3,4344.6c124.6-55.6,274-216.5,321.9-341.1c26.8-72.8,34.5-170.5,42.2-459.9l7.7-369.8H5006H501V3490c0,316.2,19.2,471.4,70.9,572.9c40.2,78.6,176.3,220.4,243.3,254.9c157.1,82.4,23,80.5,4217.6,76.6l4004.9-3.8L9139.3,4344.6z M9497.6-457.4c0-3073.6-1.9-3223.1-34.5-3320.8c-47.9-134.1-193.6-291.3-323.8-350.7l-101.6-46H5004.1H970.5l-99.6,46C752-4075.2,610.2-3931.5,552.8-3805l-42.2,90.1l-5.7,3219.2c-1.9,1770.6,0,3228.8,5.7,3242.2c5.7,21.1,887.2,24.9,4497.3,21.1l4489.7-5.7V-457.4z"/><path d="M1045.2,3978.6c-174.4-69-151.4-354.5,30.7-390.9c120.7-23,249.1,80.5,249.1,199.3c0,70.9-57.5,155.2-124.6,184C1125.7,4001.6,1102.7,4001.6,1045.2,3978.6z"/><path d="M1848.1,3967.1c-74.7-36.4-128.4-141.8-111.1-218.4c15.3-70.9,92-147.5,162.9-162.9c78.6-17.2,182,36.4,218.4,115c38.3,78.6,38.3,93.9,0,172.5c-28.7,61.3-124.6,124.6-184,124.6C1920.9,3997.8,1882.6,3982.4,1848.1,3967.1z"/><path d="M2672.1,3970.9c-63.2-28.7-120.7-115-120.7-184c0-70.9,57.5-155.2,128.4-184c195.4-82.4,364.1,161,222.3,318.1C2838.8,3990.1,2756.4,4007.3,2672.1,3970.9z"/><path d="M5069.3,1882.3c-46-46-65.2-82.4-65.2-124.6c0-82.4,44.1-162.9,105.4-189.7c36.4-17.3,425.4-23,1540.6-23c1465.9,0,1492.7,0,1540.6,38.3c72.8,57.5,99.6,153.3,63.2,235.7c-55.6,134.1,23,128.4-1632.6,128.4h-1487L5069.3,1882.3z"/><path d="M2821.5,1876.5c-72.8-74.7-1101.8-2954.8-1084.6-3035.3c15.3-69,93.9-145.6,162.9-160.9c69-15.3,178.2,32.6,210.8,93.9c13.4,24.9,76.7,195.4,141.8,377.5l116.9,333.4l588.3,5.7l586.3,3.8l80.5-224.2c180.1-500.1,195.5-528.9,272.1-567.2c61.3-30.7,82.4-32.6,139.9-13.4c84.3,28.7,143.7,103.5,143.7,182c0,34.5-233.8,716.7-517.4,1515.7c-406.2,1136.3-528.9,1464-567.2,1498.5C3022.7,1949.3,2890.5,1945.5,2821.5,1876.5z M3191.4,489.2c111.1-312.3,203.1-572.9,203.1-580.6c0-5.8-193.5-11.5-431.1-11.5c-258.7,0-431.1,7.7-431.1,17.2c0,15.3,367.9,1063.5,413.9,1178.5c13.4,36.4,13.4,36.4,26.8,0C2980.6,1073.6,3078.3,801.5,3191.4,489.2z"/><path d="M5069.3,655.9c-46-46-65.2-82.4-65.2-124.6c0-82.4,44.1-162.9,105.4-189.7c36.4-17.3,425.4-23,1540.6-23c1465.9,0,1492.7,0,1540.6,38.3c72.8,57.5,99.6,153.3,63.2,235.7C8198.4,726.8,8277,721,6621.4,721h-1487L5069.3,655.9z"/><path d="M5069.3-570.5c-46-46-65.2-82.4-65.2-124.6c0-82.4,44.1-162.9,105.4-189.7c36.4-17.3,425.4-23,1540.6-23c1465.9,0,1492.7,0,1540.6,38.3c72.8,57.5,99.6,153.3,63.2,235.7c-55.6,134.1,23,128.4-1632.6,128.4h-1487L5069.3-570.5z"/><path d="M1830.9-1768.1c-69-42.2-111.1-143.7-92-220.4c5.7-26.8,38.3-70.9,69-97.7l57.5-47.9h3136.8c3117.7,0,3138.7,0,3188.6,38.3c72.8,57.5,99.6,153.3,63.2,235.7c-57.5,138,201.2,128.4-3253.7,128.4C1968.8-1731.7,1888.3-1733.6,1830.9-1768.1z"/><path d="M1830.9-2994.5c-69-42.1-111.1-143.7-92-220.4c5.7-26.8,38.3-70.9,69-97.7l57.5-47.9h3136.8c3117.7,0,3138.7,0,3188.6,38.3c72.8,57.5,99.6,153.3,63.2,235.7c-57.5,138,201.2,128.4-3253.7,128.4C1968.8-2958.1,1888.3-2960,1830.9-2994.5z"/></g></g>
</svg>