<svg version="1.1" xmlns="http://www.w3.org/2000/svg" xmlns:xlink="http://www.w3.org/1999/xlink" x="0px" y="0px" viewBox="0 0 1000 1000" enable-background="new 0 0 1000 1000" xml:space="preserve">
<metadata> Svg Vector Icons : http://www.onlinewebfonts.com/icon </metadata>
<g><path d="M910.6,832.7c0,43-34.9,77.9-77.9,77.9H167.5c-43,0-77.9-34.9-77.9-77.9V513.2H10v319.5C10,919.4,80.6,990,167.5,990h665.2c86.7,0,157.3-70.6,157.3-157.3V513.2h-79.4V832.7z M832.7,10H167.5C80.6,10,10,80.6,10,167.5v319.3h79.4V167.5c0-43,35-78,77.9-78h665.2c43,0,77.9,35,77.9,78v319.3l79.5,0V167.5C990,80.6,919.4,10,832.7,10z"/><path d="M608.2,177.8C829.2,192.9,879.1,331,879.1,331l-8.2-91.5c-78.5-109.8-232.5-101.2-336.2-79.7c-15-2.1-30.5-3.5-46.4-3.5C295.3,156.3,139,312.6,139,505.6s156.3,349.3,349.3,349.3c192.9,0,349.4-156.4,349.4-349.3C837.6,355,741.9,226.8,608.2,177.8z M362.7,726.8c-52.7,0-95.6-42.9-95.6-95.7c0-52.9,42.9-95.7,95.6-95.7c52.9,0,95.8,42.8,95.8,95.7C458.5,683.9,415.6,726.8,362.7,726.8z M362.7,475.8c-52.7,0-95.6-42.8-95.6-95.7c0-52.8,42.9-95.6,95.6-95.6c52.9,0,95.8,42.9,95.8,95.6C458.5,433,415.6,475.8,362.7,475.8z M613.8,726.8c-53,0-95.7-42.9-95.7-95.7c0-52.9,42.7-95.7,95.7-95.7c52.9,0,95.6,42.8,95.6,95.7C709.4,683.9,666.7,726.8,613.8,726.8z M613.8,475.8c-53,0-95.7-42.8-95.7-95.7c0-52.8,42.7-95.6,95.7-95.6c52.9,0,95.6,42.9,95.6,95.6C709.4,433,666.7,475.8,613.8,475.8z"/></g>
</svg>