<svg width="40" height="40" viewBox="0 0 40 40" fill="none" xmlns="http://www.w3.org/2000/svg">
    <path d="M26.75 14.9375H13.25C12.9425 14.9375 12.6875 14.6825 12.6875 14.375C12.6875 14.0675 12.9425 13.8125 13.25 13.8125H26.75C27.0575 13.8125 27.3125 14.0675 27.3125 14.375C27.3125 14.6825 27.0575 14.9375 26.75 14.9375Z" fill="#121212"/>
    <path d="M20.3525 18.6875H13.25C12.9425 18.6875 12.6875 18.4325 12.6875 18.125C12.6875 17.8175 12.9425 17.5625 13.25 17.5625H20.3525C20.66 17.5625 20.915 17.8175 20.915 18.125C20.915 18.4325 20.6675 18.6875 20.3525 18.6875Z" fill="#121212"/>
    <path d="M26.75 22.4375H13.25C12.9425 22.4375 12.6875 22.1825 12.6875 21.875C12.6875 21.5675 12.9425 21.3125 13.25 21.3125H26.75C27.0575 21.3125 27.3125 21.5675 27.3125 21.875C27.3125 22.1825 27.0575 22.4375 26.75 22.4375Z" fill="#292D32"/>
    <path d="M20.3525 26.1875H13.25C12.9425 26.1875 12.6875 25.9325 12.6875 25.625C12.6875 25.3175 12.9425 25.0625 13.25 25.0625H20.3525C20.66 25.0625 20.915 25.3175 20.915 25.625C20.915 25.9325 20.6675 26.1875 20.3525 26.1875Z" fill="#292D32"/>
</svg>
