<svg width="40" height="40" viewBox="0 0 40 40" fill="none" xmlns="http://www.w3.org/2000/svg">
    <path d="M26.75 14.9375H13.25C12.9425 14.9375 12.6875 14.6825 12.6875 14.375C12.6875 14.0675 12.9425 13.8125 13.25 13.8125H26.75C27.0575 13.8125 27.3125 14.0675 27.3125 14.375C27.3125 14.6825 27.0575 14.9375 26.75 14.9375Z" fill="#121212"/>
    <path d="M26.7509 18.6875H19.6484C19.3409 18.6875 19.0859 18.4325 19.0859 18.125C19.0859 17.8175 19.3409 17.5625 19.6484 17.5625H26.7509C27.0584 17.5625 27.3134 17.8175 27.3134 18.125C27.3134 18.4325 27.0584 18.6875 26.7509 18.6875Z" fill="#121212"/>
    <path d="M26.75 22.4375H13.25C12.9425 22.4375 12.6875 22.1825 12.6875 21.875C12.6875 21.5675 12.9425 21.3125 13.25 21.3125H26.75C27.0575 21.3125 27.3125 21.5675 27.3125 21.875C27.3125 22.1825 27.0575 22.4375 26.75 22.4375Z" fill="#292D32"/>
    <path d="M26.7509 26.1875H19.6484C19.3409 26.1875 19.0859 25.9325 19.0859 25.625C19.0859 25.3175 19.3409 25.0625 19.6484 25.0625H26.7509C27.0584 25.0625 27.3134 25.3175 27.3134 25.625C27.3134 25.9325 27.0584 26.1875 26.7509 26.1875Z" fill="#292D32"/>
</svg>
