<svg width="40" height="40" viewBox="0 0 40 40" fill="none" xmlns="http://www.w3.org/2000/svg">
    <path d="M26.75 14.9375H13.25C12.9425 14.9375 12.6875 14.6825 12.6875 14.375C12.6875 14.0675 12.9425 13.8125 13.25 13.8125H26.75C27.0575 13.8125 27.3125 14.0675 27.3125 14.375C27.3125 14.6825 27.0575 14.9375 26.75 14.9375Z" fill="#121212"/>
    <path d="M23.5553 18.6875H16.4453C16.1378 18.6875 15.8828 18.4325 15.8828 18.125C15.8828 17.8175 16.1378 17.5625 16.4453 17.5625H23.5478C23.8553 17.5625 24.1103 17.8175 24.1103 18.125C24.1103 18.4325 23.8628 18.6875 23.5553 18.6875Z" fill="#121212"/>
    <path d="M26.75 22.4375H13.25C12.9425 22.4375 12.6875 22.1825 12.6875 21.875C12.6875 21.5675 12.9425 21.3125 13.25 21.3125H26.75C27.0575 21.3125 27.3125 21.5675 27.3125 21.875C27.3125 22.1825 27.0575 22.4375 26.75 22.4375Z" fill="#292D32"/>
    <path d="M23.5553 26.1875H16.4453C16.1378 26.1875 15.8828 25.9325 15.8828 25.625C15.8828 25.3175 16.1378 25.0625 16.4453 25.0625H23.5478C23.8553 25.0625 24.1103 25.3175 24.1103 25.625C24.1103 25.9325 23.8628 26.1875 23.5553 26.1875Z" fill="#292D32"/>
</svg>
