<svg width="17" height="16" viewBox="0 0 17 16" fill="none" xmlns="http://www.w3.org/2000/svg">
<path d="M8.51357 13.6866C6.96024 13.6866 5.4069 13.4399 3.93357 12.9466C3.37357 12.7533 2.9469 12.3599 2.76024 11.8466C2.5669 11.3333 2.63357 10.7666 2.94024 10.2599L3.7069 8.98659C3.8669 8.71993 4.01357 8.18659 4.01357 7.87326V5.94659C4.01357 3.46659 6.03357 1.44659 8.51357 1.44659C10.9936 1.44659 13.0136 3.46659 13.0136 5.94659V7.87326C13.0136 8.17993 13.1602 8.71993 13.3202 8.99326L14.0802 10.2599C14.3669 10.7399 14.4202 11.3199 14.2269 11.8466C14.0336 12.3733 13.6136 12.7733 13.0869 12.9466C11.6202 13.4399 10.0669 13.6866 8.51357 13.6866ZM8.51357 2.44659C6.58691 2.44659 5.01357 4.01326 5.01357 5.94659V7.87326C5.01357 8.35993 4.81357 9.07993 4.5669 9.49993L3.80024 10.7733C3.65357 11.0199 3.61357 11.2799 3.70024 11.4999C3.78024 11.7266 3.98024 11.8999 4.25357 11.9933C7.04024 12.9266 9.99357 12.9266 12.7802 11.9933C13.0202 11.9133 13.2069 11.7333 13.2936 11.4933C13.3802 11.2533 13.3602 10.9933 13.2269 10.7733L12.4602 9.49993C12.2069 9.06659 12.0136 8.35326 12.0136 7.86659V5.94659C12.0136 4.01326 10.4469 2.44659 8.51357 2.44659Z" fill="#7B7B7B"/>
<path d="M9.75308 2.62662C9.70642 2.62662 9.65975 2.61995 9.61308 2.60662C9.41975 2.55329 9.23308 2.51329 9.05308 2.48662C8.48642 2.41329 7.93975 2.45329 7.42642 2.60662C7.23975 2.66662 7.03975 2.60662 6.91308 2.46662C6.78642 2.32662 6.74642 2.12662 6.81975 1.94662C7.09308 1.24662 7.75975 0.786621 8.51975 0.786621C9.27975 0.786621 9.94642 1.23995 10.2198 1.94662C10.2864 2.12662 10.2531 2.32662 10.1264 2.46662C10.0264 2.57329 9.88642 2.62662 9.75308 2.62662Z" fill="#7B7B7B"/>
<path d="M8.51318 15.2067C7.85318 15.2067 7.21318 14.9401 6.74652 14.4734C6.27985 14.0067 6.01318 13.3667 6.01318 12.7067H7.01318C7.01318 13.1001 7.17318 13.4867 7.45318 13.7667C7.73318 14.0467 8.11985 14.2067 8.51318 14.2067C9.33985 14.2067 10.0132 13.5334 10.0132 12.7067H11.0132C11.0132 14.0867 9.89318 15.2067 8.51318 15.2067Z" fill="#7B7B7B"/>
</svg>
