<svg width="40" height="40" viewBox="0 0 40 40" fill="none" xmlns="http://www.w3.org/2000/svg">
    <path d="M20.0002 20.5625H14.6602C14.3527 20.5625 14.0977 20.3075 14.0977 20V14.375C14.0977 13.235 15.0202 12.3125 16.1602 12.3125H20.0002C22.2727 12.3125 24.1252 14.165 24.1252 16.4375C24.1252 18.71 22.2727 20.5625 20.0002 20.5625ZM15.2152 19.4375H20.0002C21.6577 19.4375 23.0002 18.095 23.0002 16.4375C23.0002 14.78 21.6577 13.4375 20.0002 13.4375H16.1602C15.6427 13.4375 15.2227 13.8575 15.2227 14.375V19.4375H15.2152Z" fill="#121212"/>
    <path d="M21.7852 27.6875H16.1602C15.0202 27.6875 14.0977 26.765 14.0977 25.625V20C14.0977 19.6925 14.3527 19.4375 14.6602 19.4375H21.7852C24.0577 19.4375 25.9102 21.29 25.9102 23.5625C25.9102 25.835 24.0577 27.6875 21.7852 27.6875ZM15.2152 20.5625V25.625C15.2152 26.1425 15.6352 26.5625 16.1527 26.5625H21.7777C23.4352 26.5625 24.7777 25.22 24.7777 23.5625C24.7777 21.905 23.4352 20.5625 21.7777 20.5625H15.2152Z" fill="#121212"/>
</svg>
