<svg width="56" height="56" viewBox="0 0 56 56" fill="none" xmlns="http://www.w3.org/2000/svg">
<rect width="56" height="56" rx="12" fill="#121212"/>
<path d="M34.0002 22C33.3902 22 32.8302 21.65 32.5502 21.11L31.8302 19.66C31.3702 18.75 30.1702 18 29.1502 18H26.8602C25.8302 18 24.6302 18.75 24.1702 19.66L23.4502 21.11C23.1702 21.65 22.6102 22 22.0002 22C19.8302 22 18.1102 23.83 18.2502 25.99L18.7702 34.25C18.8902 36.31 20.0002 38 22.7602 38H33.2402C36.0002 38 37.1002 36.31 37.2302 34.25L37.7502 25.99C37.8902 23.83 36.1702 22 34.0002 22ZM26.5002 23.25H29.5002C29.9102 23.25 30.2502 23.59 30.2502 24C30.2502 24.41 29.9102 24.75 29.5002 24.75H26.5002C26.0902 24.75 25.7502 24.41 25.7502 24C25.7502 23.59 26.0902 23.25 26.5002 23.25ZM28.0002 34.12C26.1402 34.12 24.6202 32.61 24.6202 30.74C24.6202 28.87 26.1302 27.36 28.0002 27.36C29.8702 27.36 31.3802 28.87 31.3802 30.74C31.3802 32.61 29.8602 34.12 28.0002 34.12Z" fill="#00CFCE"/>
</svg>
