<svg width="60" height="60" viewBox="0 0 60 60" fill="none" xmlns="http://www.w3.org/2000/svg">
<path fill-rule="evenodd" clip-rule="evenodd" d="M8.5425 0.00561523C5.91562 0.00561523 3.78656 2.13655 3.78656 4.76249V55.2384C3.78656 57.8662 5.91562 59.9953 8.5425 59.9953H51.4556C54.0816 59.9953 56.2125 57.8662 56.2125 55.2384V19.0462L38.4919 0.00561523H8.5425Z" fill="#45B058"/>
<path d="M21.9647 50.5668C21.7622 50.5668 21.5756 50.4825 21.4584 50.3137L17.9634 45.6543L14.4525 50.3137C14.3344 50.4825 14.1487 50.5668 13.9462 50.5668C13.575 50.5668 13.2712 50.28 13.2712 49.8918C13.2712 49.7568 13.3041 49.605 13.4062 49.4868L17.0531 44.6765L13.6603 40.1522C13.5759 40.034 13.5244 39.899 13.5244 39.764C13.5244 39.4434 13.7944 39.089 14.2003 39.089C14.4028 39.089 14.6053 39.1903 14.7403 39.359L17.9634 43.6978L21.1866 39.3422C21.3056 39.1734 21.4903 39.089 21.6937 39.089C22.0481 39.089 22.3856 39.3759 22.3856 39.764C22.3856 39.899 22.3519 40.034 22.2666 40.1522L18.8737 44.6597L22.5216 49.4868C22.6059 49.605 22.6387 49.74 22.6387 49.875C22.6387 50.2462 22.335 50.5668 21.9647 50.5668ZM31.3294 50.4487H26.2153C25.6575 50.4487 25.2019 49.9931 25.2019 49.4362V39.764C25.2019 39.3928 25.5056 39.089 25.9275 39.089C26.2987 39.089 26.6034 39.3928 26.6034 39.764V49.2H31.3294C31.6659 49.2 31.9369 49.47 31.9369 49.8075C31.9369 50.1787 31.6659 50.4487 31.3294 50.4487ZM37.875 50.6512C36.2044 50.6512 34.8862 50.0943 33.9253 49.2497C33.7734 49.1147 33.7059 48.929 33.7059 48.7434C33.7059 48.4059 33.9591 48.0347 34.3641 48.0347C34.4991 48.0347 34.6509 48.0684 34.77 48.1697C35.5462 48.8615 36.6262 49.4015 37.9266 49.4015C39.9356 49.4015 40.5759 48.3215 40.5759 47.46C40.5759 44.5565 33.9094 46.1606 33.9094 42.1425C33.9094 40.2862 35.5631 39.0197 37.7747 39.0197C39.2259 39.0197 40.4756 39.4584 41.3869 40.2178C41.5387 40.3528 41.6241 40.5384 41.6241 40.724C41.6241 41.0615 41.3362 41.399 40.965 41.399C40.8291 41.399 40.6772 41.3484 40.56 41.2472C39.7322 40.5722 38.7037 40.2684 37.6734 40.2684C36.3234 40.2684 35.3606 40.994 35.3606 42.0581C35.3606 44.5903 42.0281 43.1381 42.0281 47.3418C42.0281 48.9806 40.9144 50.6512 37.875 50.6512Z" fill="white"/>
<path fill-rule="evenodd" clip-rule="evenodd" d="M56.206 19.08V20.0175H44.205C44.205 20.0175 38.2875 18.8363 38.461 13.7297C38.461 13.7297 38.655 19.08 44.0878 19.08H56.206Z" fill="#349C42"/>
<path opacity="0.5" fill-rule="evenodd" clip-rule="evenodd" d="M38.4834 0V13.6509C38.4834 15.2034 39.5184 19.08 44.2059 19.08H56.2069L38.4834 0Z" fill="white"/>
</svg>
