<svg width="18" height="18" viewBox="0 0 18 18" fill="none" xmlns="http://www.w3.org/2000/svg">
    <path d="M15.997 5.93996C15.6895 5.93996 15.4345 5.68496 15.4345 5.37746V4.01246C15.4345 3.46496 14.992 3.02246 14.4445 3.02246H3.55445C3.00695 3.02246 2.56445 3.46496 2.56445 4.01246V5.38496C2.56445 5.69246 2.30945 5.94746 2.00195 5.94746C1.69445 5.94746 1.43945 5.69246 1.43945 5.37746V4.01246C1.43945 2.84246 2.39195 1.89746 3.55445 1.89746H14.4445C15.6145 1.89746 16.5595 2.84996 16.5595 4.01246V5.38496C16.5595 5.69246 16.312 5.93996 15.997 5.93996Z" fill="#121212"/>
    <path d="M9 16.1025C8.6925 16.1025 8.4375 15.8475 8.4375 15.54V3.08252C8.4375 2.77502 8.6925 2.52002 9 2.52002C9.3075 2.52002 9.5625 2.77502 9.5625 3.08252V15.54C9.5625 15.855 9.3075 16.1025 9 16.1025Z" fill="#121212"/>
    <path d="M11.9549 16.1025H6.04492C5.73742 16.1025 5.48242 15.8475 5.48242 15.54C5.48242 15.2325 5.73742 14.9775 6.04492 14.9775H11.9549C12.2624 14.9775 12.5174 15.2325 12.5174 15.54C12.5174 15.8475 12.2624 16.1025 11.9549 16.1025Z" fill="#292D32"/>
</svg>
