<svg width="20" height="20" viewBox="0 0 20 20" fill="none" xmlns="http://www.w3.org/2000/svg">
<path d="M17.4993 4.375H11.666C11.3243 4.375 11.041 4.09167 11.041 3.75C11.041 3.40833 11.3243 3.125 11.666 3.125H17.4993C17.841 3.125 18.1243 3.40833 18.1243 3.75C18.1243 4.09167 17.841 4.375 17.4993 4.375Z" fill="#474747"/>
<path d="M17.4993 8.54163H11.666C11.3243 8.54163 11.041 8.25829 11.041 7.91663C11.041 7.57496 11.3243 7.29163 11.666 7.29163H17.4993C17.841 7.29163 18.1243 7.57496 18.1243 7.91663C18.1243 8.25829 17.841 8.54163 17.4993 8.54163Z" fill="#474747"/>
<path d="M17.5 12.7084H2.5C2.15833 12.7084 1.875 12.425 1.875 12.0834C1.875 11.7417 2.15833 11.4584 2.5 11.4584H17.5C17.8417 11.4584 18.125 11.7417 18.125 12.0834C18.125 12.425 17.8417 12.7084 17.5 12.7084Z" fill="#474747"/>
<path d="M17.5 16.875H2.5C2.15833 16.875 1.875 16.5917 1.875 16.25C1.875 15.9083 2.15833 15.625 2.5 15.625H17.5C17.8417 15.625 18.125 15.9083 18.125 16.25C18.125 16.5917 17.8417 16.875 17.5 16.875Z" fill="#474747"/>
<path d="M6.59935 8.95837H4.23268C2.94935 8.95837 2.29102 8.30837 2.29102 7.01671V4.65004C2.29102 3.36671 2.94102 2.70837 4.23268 2.70837H6.60768C7.89102 2.70837 8.54935 3.35837 8.54935 4.65004V7.02504C8.54102 8.30837 7.89102 8.95837 6.59935 8.95837ZM4.23268 3.95837C3.64102 3.95837 3.54102 4.05837 3.54102 4.65004V7.02504C3.54102 7.61671 3.64102 7.71671 4.23268 7.71671H6.60768C7.19935 7.71671 7.29935 7.61671 7.29935 7.02504V4.65004C7.29935 4.05837 7.19935 3.95837 6.60768 3.95837H4.23268Z" fill="#474747"/>
</svg>
