<svg width="40" height="40" viewBox="0 0 40 40" fill="none" xmlns="http://www.w3.org/2000/svg">
    <path d="M25.1602 13.8125H18.2152C17.9077 13.8125 17.6602 13.5575 17.6602 13.25C17.6602 12.9425 17.9152 12.6875 18.2227 12.6875H25.1602C25.4677 12.6875 25.7227 12.9425 25.7227 13.25C25.7227 13.5575 25.4677 13.8125 25.1602 13.8125Z" fill="#121212"/>
    <path d="M21.7848 27.3125H14.8398C14.5323 27.3125 14.2773 27.0575 14.2773 26.75C14.2773 26.4425 14.5323 26.1875 14.8398 26.1875H21.7773C22.0848 26.1875 22.3398 26.4425 22.3398 26.75C22.3398 27.0575 22.0923 27.3125 21.7848 27.3125Z" fill="#121212"/>
    <path d="M18.3121 27.3125C18.2671 27.3125 18.2221 27.305 18.1771 27.2975C17.8771 27.2225 17.6896 26.915 17.7646 26.615L21.1396 13.115C21.2146 12.815 21.5146 12.6275 21.8221 12.7025C22.1221 12.7775 22.3096 13.085 22.2346 13.385L18.8596 26.885C18.7921 27.14 18.5671 27.3125 18.3121 27.3125Z" fill="#292D32"/>
</svg>
