<svg width="21" height="20" viewBox="0 0 21 20" fill="none" xmlns="http://www.w3.org/2000/svg">
<path d="M13.2001 18.5583H13.0918C9.39176 18.5583 7.60843 17.1 7.30009 13.8333C7.26676 13.4917 7.51676 13.1833 7.86676 13.15C8.20009 13.1166 8.51676 13.375 8.55009 13.7167C8.79176 16.3333 10.0251 17.3083 13.1001 17.3083H13.2084C16.6001 17.3083 17.8001 16.1083 17.8001 12.7167V7.28332C17.8001 3.89165 16.6001 2.69165 13.2084 2.69165H13.1001C10.0084 2.69165 8.77509 3.68332 8.55009 6.34998C8.50843 6.69165 8.21676 6.94998 7.86676 6.91665C7.51676 6.89165 7.26676 6.58332 7.29176 6.24165C7.57509 2.92498 9.36676 1.44165 13.0918 1.44165H13.2001C17.2918 1.44165 19.0418 3.19165 19.0418 7.28332V12.7167C19.0418 16.8083 17.2918 18.5583 13.2001 18.5583Z" fill="#DD3333"/>
<path d="M12.9999 10.025H3.5166C3.51459 10.025 3.50831 10.0244 3.50024 10.0164C3.49218 10.0083 3.4916 10.002 3.4916 10C3.4916 9.99799 3.49218 9.9917 3.50024 9.98364C3.50831 9.97557 3.51459 9.975 3.5166 9.975H12.9999C13.0019 9.975 13.0082 9.97557 13.0163 9.98364C13.0244 9.9917 13.0249 9.99799 13.0249 10C13.0249 10.002 13.0244 10.0083 13.0163 10.0164C13.0082 10.0244 13.0019 10.025 12.9999 10.025Z" fill="#DD3333" stroke="#DD3333" stroke-width="1.2"/>
<path d="M5.37503 13.4167C5.2167 13.4167 5.05837 13.3584 4.93337 13.2334L2.1417 10.4417C1.90003 10.2 1.90003 9.80003 2.1417 9.55837L4.93337 6.7667C5.17503 6.52503 5.57503 6.52503 5.8167 6.7667C6.05837 7.00837 6.05837 7.40837 5.8167 7.65003L3.4667 10L5.8167 12.35C6.05837 12.5917 6.05837 12.9917 5.8167 13.2334C5.70003 13.3584 5.53337 13.4167 5.37503 13.4167Z" fill="#DD3333"/>
</svg>
