<?xml version="1.0" encoding="utf-8"?>
<!-- Generator: Adobe Illustrator 26.3.1, SVG Export Plug-In . SVG Version: 6.00 Build 0)  -->
<svg version="1.1" id="Layer_1" xmlns="http://www.w3.org/2000/svg" xmlns:xlink="http://www.w3.org/1999/xlink" x="0px" y="0px"
	 viewBox="0 0 192 64" style="enable-background:new 0 0 192 64;" xml:space="preserve">
<style type="text/css">
	.st0{fill:#FBFDFD;}
	.st1{fill:#FCFEFE;}
	.st2{fill:#21D0CD;}
	.st3{fill:#1ACFCC;}
</style>
<g id="jsszeL.tif">
	<g>
		<g>
			<path class="st0" d="M130.3,45.3c0-9,0-18,0-27.1c1.5,1.1,2.5,0.5,3.4-0.8c5-6.8,11.8-10.4,20.3-10.5
				c11.8-0.2,22.1,7.8,24.8,19.1c2.7,11.3-3,23.1-13.7,28.2c-11,5.2-24.1,1.9-31.4-8C132.6,44.6,131.9,44.4,130.3,45.3z M154.6,50.5
				c-11.7-0.2-20.4-10.6-18.6-22.3c1.4-9.3,9.1-16,18.7-16.4c8.6-0.3,16.7,5.9,18.9,14.6c0.5,2,0.8,4,0.6,6.1
				c-0.1,1.6,1.2,1.8,2.1,1.9c1,0.2,0.7-1,0.8-1.6c0.2-1.6,0-3.2-0.3-4.8c-1.7-12.3-14.4-21.2-26.5-18.6
				c-9.8,2.1-16.8,10.2-17.4,19.9c-0.6,10.1,5.6,19.5,15.1,22.8c3,1.1,6.2,1.5,9.4,1.2c1-0.1,1-0.4,0.7-1.3
				C157.5,50,156,50.5,154.6,50.5z M171.5,31.3c0-1.4-0.1-2.7-0.4-4.1c-1.9-8-9.9-13.6-18-12.5c-8.5,1.1-14.7,8.3-14.5,16.6
				c0,0.8,0,1.5,1.2,1.5c1-0.1,1.6-0.1,1.5-1.4c-0.1-0.6,0.1-1.3,0.2-2c1-7.6,7.3-12.6,15.2-11.9c6.8,0.6,12.4,7,12.2,14
				c-0.3,7.6-6,13.3-13.4,13.5c-1,0-1.9,0-1.9,1.5c0,1.5,1,1.4,2,1.4C164.2,47.8,171.4,40.4,171.5,31.3z"/>
			<path class="st1" d="M158.1,3.9c7.8,0,15.6,0,23.4,0c0.9,0,1.1,0.2,1.1,1.1c0,18,0,36.1,0,54.1c0,0.9-0.2,1.1-1.1,1.1
				c-16.7,0-33.4,0-50.1,0c-0.9,0-1.1-0.2-1.1-1.1c0.1-4.2,0-8.4,0-12.6c0.5,0.2,0.7,0.8,1,1.2c6.7,9.2,15.8,13.3,27.1,11.8
				c12.9-1.7,22.7-12.4,23.8-25.2c1.1-12.9-6.8-24.9-19.2-29C161.4,4.7,159.7,4.3,158.1,3.9z"/>
			<path class="st2" d="M158.1,3.9c1.6,0.5,3.3,0.9,4.9,1.4c12.3,4,20.3,16,19.2,29c-1.1,12.9-10.9,23.5-23.8,25.2
				c-11.3,1.5-20.3-2.6-27.1-11.8c-0.3-0.4-0.5-1-1-1.2c0-0.4,0-0.7,0-1.1c1.6-0.9,2.3-0.8,3.5,0.9c7.2,9.9,20.4,13.2,31.4,8
				c10.7-5.1,16.4-16.9,13.7-28.2C176.1,14.7,165.8,6.8,154,7c-8.5,0.2-15.3,3.7-20.3,10.5c-1,1.3-2,1.9-3.4,0.8c0-0.4,0-0.7,0-1.1
				c0.2-0.3,0.5-0.5,0.7-0.8C135.3,10,141.3,6,148.9,4.3c0.5-0.1,1.2,0.1,1.6-0.5C153,3.9,155.5,3.9,158.1,3.9z"/>
			<path class="st1" d="M150.5,3.9c-0.4,0.6-1.1,0.4-1.6,0.5C141.3,6,135.3,10,131,16.4c-0.2,0.3-0.5,0.5-0.7,0.8
				c0-4.1,0-8.2,0-12.3c0-0.9,0.2-1.1,1.1-1.1C137.7,3.9,144.1,3.9,150.5,3.9z"/>
			<path class="st2" d="M154.6,50.5c1.4,0,2.9-0.5,3.5,1.5c0.3,1,0.3,1.2-0.7,1.3c-3.2,0.3-6.3-0.1-9.4-1.2
				c-9.5-3.3-15.7-12.7-15.1-22.8c0.6-9.8,7.7-17.8,17.4-19.9c12.1-2.6,24.9,6.3,26.5,18.6c0.2,1.6,0.4,3.2,0.3,4.8
				c-0.1,0.6,0.2,1.8-0.8,1.6c-0.9-0.2-2.2-0.3-2.1-1.9c0.2-2-0.1-4.1-0.6-6.1c-2.2-8.6-10.3-14.9-18.9-14.6
				c-9.6,0.4-17.3,7.1-18.7,16.4C134.2,39.9,142.9,50.3,154.6,50.5z"/>
			<path class="st2" d="M171.5,31.3c0,9-7.3,16.5-16.1,16.5c-1,0-2,0.1-2-1.4c0-1.4,0.9-1.4,1.9-1.5c7.5-0.2,13.2-5.9,13.4-13.5
				c0.3-7-5.4-13.4-12.2-14c-7.8-0.6-14.1,4.3-15.2,11.9c-0.1,0.7-0.2,1.3-0.2,2c0.1,1.2-0.6,1.3-1.5,1.4c-1.2,0.1-1.2-0.6-1.2-1.5
				c-0.2-8.3,6.1-15.4,14.5-16.6c8.1-1.1,16.1,4.5,18,12.5C171.4,28.6,171.5,30,171.5,31.3z"/>
		</g>
	</g>
</g>
<g>
	<path d="M1.6,23.6h15.5v4.1h-5.2v12.4H6.8V27.7H1.6V23.6z"/>
	<path d="M19.6,23.6h5.1v16.5h-5.1V23.6z"/>
	<path d="M27.5,34.6l4.8-0.3c0.1,0.8,0.3,1.4,0.6,1.8c0.5,0.7,1.3,1,2.2,1c0.7,0,1.3-0.2,1.7-0.5c0.4-0.3,0.6-0.7,0.6-1.2
		c0-0.4-0.2-0.8-0.6-1.1c-0.4-0.3-1.2-0.7-2.6-1c-2.2-0.5-3.8-1.2-4.8-2c-1-0.8-1.4-1.9-1.4-3.2c0-0.8,0.2-1.6,0.7-2.4
		c0.5-0.8,1.2-1.3,2.2-1.8c1-0.4,2.3-0.6,4.1-0.6c2.1,0,3.7,0.4,4.8,1.2c1.1,0.8,1.8,2,2,3.7l-4.8,0.3c-0.1-0.7-0.4-1.3-0.8-1.6
		c-0.4-0.3-1-0.5-1.7-0.5c-0.6,0-1,0.1-1.3,0.4c-0.3,0.3-0.5,0.6-0.5,0.9c0,0.3,0.1,0.5,0.4,0.7c0.2,0.2,0.8,0.4,1.7,0.6
		c2.2,0.5,3.8,1,4.8,1.5c1,0.5,1.7,1.1,2.1,1.8c0.4,0.7,0.7,1.5,0.7,2.4c0,1.1-0.3,2-0.9,2.9s-1.4,1.6-2.4,2c-1,0.5-2.4,0.7-4,0.7
		c-2.8,0-4.7-0.5-5.8-1.6C28.2,37.7,27.6,36.3,27.5,34.6z"/>
	<path d="M44.1,34.6l4.8-0.3c0.1,0.8,0.3,1.4,0.6,1.8c0.5,0.7,1.3,1,2.2,1c0.7,0,1.3-0.2,1.7-0.5c0.4-0.3,0.6-0.7,0.6-1.2
		c0-0.4-0.2-0.8-0.6-1.1c-0.4-0.3-1.2-0.7-2.6-1c-2.2-0.5-3.8-1.2-4.8-2c-1-0.8-1.4-1.9-1.4-3.2c0-0.8,0.2-1.6,0.7-2.4
		c0.5-0.8,1.2-1.3,2.2-1.8c1-0.4,2.3-0.6,4.1-0.6c2.1,0,3.7,0.4,4.8,1.2c1.1,0.8,1.8,2,2,3.7l-4.8,0.3c-0.1-0.7-0.4-1.3-0.8-1.6
		c-0.4-0.3-1-0.5-1.7-0.5c-0.6,0-1,0.1-1.3,0.4c-0.3,0.3-0.5,0.6-0.5,0.9c0,0.3,0.1,0.5,0.4,0.7c0.2,0.2,0.8,0.4,1.7,0.6
		c2.2,0.5,3.8,1,4.8,1.5c1,0.5,1.7,1.1,2.1,1.8c0.4,0.7,0.7,1.5,0.7,2.4c0,1.1-0.3,2-0.9,2.9s-1.4,1.6-2.4,2c-1,0.5-2.4,0.7-4,0.7
		c-2.8,0-4.7-0.5-5.8-1.6C44.9,37.7,44.2,36.3,44.1,34.6z"/>
	<path d="M69.3,23.6h13.6v3.5h-8.5v2.6h7.9v3.4h-7.9v3.2h8.8v3.7H69.3V23.6z"/>
	<path d="M85.9,23.6h4.8l6.2,9.1v-9.1h4.8v16.5h-4.8l-6.2-9v9h-4.8V23.6z"/>
	<path d="M113.4,34.1v-3.4h7.9v7c-1.5,1-2.8,1.7-4,2.1c-1.2,0.4-2.5,0.6-4.1,0.6c-2,0-3.5-0.3-4.8-1c-1.2-0.7-2.2-1.7-2.9-3
		c-0.7-1.3-1-2.8-1-4.5c0-1.8,0.4-3.4,1.1-4.7c0.7-1.3,1.8-2.3,3.3-3c1.1-0.5,2.6-0.8,4.5-0.8c1.8,0,3.2,0.2,4.1,0.5
		c0.9,0.3,1.7,0.8,2.2,1.5c0.6,0.7,1,1.6,1.3,2.6l-4.9,0.9c-0.2-0.6-0.5-1.1-1-1.4c-0.5-0.3-1.1-0.5-1.8-0.5c-1.1,0-2,0.4-2.7,1.2
		c-0.7,0.8-1,2-1,3.7c0,1.8,0.3,3.1,1,3.8c0.7,0.8,1.6,1.1,2.8,1.1c0.6,0,1.1-0.1,1.6-0.2c0.5-0.2,1.1-0.4,1.8-0.8v-1.6H113.4z"/>
	<path d="M124.4,23.6h5.1v16.5h-5.1V23.6z"/>
	<path d="M133.2,23.6h4.8l6.2,9.1v-9.1h4.8v16.5h-4.8l-6.2-9v9h-4.8V23.6z"/>
	<path d="M152.4,23.6H166v3.5h-8.5v2.6h7.9v3.4h-7.9v3.2h8.8v3.7h-13.9V23.6z"/>
</g>
<g>
	<path class="st3" d="M8.4,45.9l-1.2-3.1h0.5L8.4,45c0.1,0.2,0.1,0.4,0.2,0.5c0-0.2,0.1-0.3,0.2-0.5l0.8-2.3H10l-1.2,3.1H8.4z"/>
	<path class="st3" d="M11.7,45.1l0.4,0c-0.1,0.2-0.2,0.4-0.3,0.5c-0.2,0.1-0.4,0.2-0.7,0.2c-0.3,0-0.6-0.1-0.8-0.3
		c-0.2-0.2-0.3-0.5-0.3-0.9c0-0.4,0.1-0.7,0.3-0.9c0.2-0.2,0.5-0.3,0.8-0.3c0.3,0,0.6,0.1,0.7,0.3c0.2,0.2,0.3,0.5,0.3,0.9
		c0,0,0,0.1,0,0.1h-1.7c0,0.3,0.1,0.4,0.2,0.6c0.1,0.1,0.3,0.2,0.5,0.2c0.1,0,0.3,0,0.4-0.1S11.6,45.3,11.7,45.1z M10.4,44.5h1.3
		c0-0.2-0.1-0.3-0.1-0.4c-0.1-0.1-0.3-0.2-0.5-0.2c-0.2,0-0.3,0.1-0.4,0.2C10.5,44.2,10.4,44.3,10.4,44.5z"/>
	<path class="st3" d="M12.5,45.9v-2.3h0.3v0.3c0.1-0.2,0.2-0.3,0.2-0.3c0.1-0.1,0.2-0.1,0.2-0.1c0.1,0,0.3,0,0.4,0.1L13.7,44
		c-0.1-0.1-0.2-0.1-0.3-0.1c-0.1,0-0.2,0-0.2,0.1c-0.1,0.1-0.1,0.1-0.1,0.2c0,0.1-0.1,0.3-0.1,0.5v1.2H12.5z"/>
	<path class="st3" d="M15.9,45.5v0.4h-2.1c0-0.1,0-0.2,0-0.3c0.1-0.1,0.1-0.3,0.3-0.4c0.1-0.1,0.3-0.3,0.5-0.5
		c0.3-0.3,0.6-0.5,0.7-0.7c0.1-0.2,0.2-0.3,0.2-0.5c0-0.2-0.1-0.3-0.2-0.4c-0.1-0.1-0.3-0.2-0.4-0.2c-0.2,0-0.3,0.1-0.4,0.2
		c-0.1,0.1-0.2,0.3-0.2,0.5l-0.4,0c0-0.3,0.1-0.5,0.3-0.7c0.2-0.2,0.4-0.2,0.7-0.2c0.3,0,0.5,0.1,0.7,0.3c0.2,0.2,0.3,0.4,0.3,0.6
		c0,0.1,0,0.2-0.1,0.4c-0.1,0.1-0.1,0.2-0.3,0.4c-0.1,0.1-0.3,0.3-0.6,0.6c-0.2,0.2-0.4,0.3-0.4,0.4c-0.1,0.1-0.1,0.1-0.2,0.2H15.9z
		"/>
	<path class="st3" d="M16.6,45.9v-0.4H17v0.4H16.6z"/>
	<path class="st3" d="M17.6,44.3c0-0.4,0-0.7,0.1-0.9c0.1-0.2,0.2-0.4,0.3-0.5c0.2-0.1,0.3-0.2,0.6-0.2c0.2,0,0.3,0,0.4,0.1
		c0.1,0.1,0.2,0.2,0.3,0.3c0.1,0.1,0.1,0.3,0.2,0.5c0,0.2,0.1,0.4,0.1,0.7c0,0.4,0,0.7-0.1,0.9c-0.1,0.2-0.2,0.4-0.3,0.5
		c-0.2,0.1-0.3,0.2-0.6,0.2c-0.3,0-0.5-0.1-0.7-0.3C17.7,45.3,17.6,44.9,17.6,44.3z M18,44.3c0,0.5,0.1,0.9,0.2,1s0.3,0.3,0.4,0.3
		c0.2,0,0.3-0.1,0.4-0.3c0.1-0.2,0.2-0.5,0.2-1c0-0.5-0.1-0.9-0.2-1c-0.1-0.2-0.3-0.3-0.5-0.3c-0.2,0-0.3,0.1-0.4,0.2
		C18,43.4,18,43.8,18,44.3z"/>
</g>
<g>
	<path d="M2.1,21l2-5.2h0.7L6.9,21H6.1l-0.6-1.6H3.4L2.8,21H2.1z M3.6,18.8h1.8l-0.5-1.4c-0.2-0.4-0.3-0.8-0.4-1.1
		c-0.1,0.3-0.2,0.7-0.3,1L3.6,18.8z"/>
	<path d="M7.5,21v-3.3H7v-0.5h0.6v-0.4c0-0.3,0-0.4,0.1-0.6c0.1-0.2,0.2-0.3,0.3-0.4s0.4-0.2,0.7-0.2c0.2,0,0.4,0,0.6,0.1l-0.1,0.6
		c-0.1,0-0.3,0-0.4,0c-0.2,0-0.3,0-0.4,0.1c-0.1,0.1-0.1,0.2-0.1,0.5v0.3h0.7v0.5H8.2V21H7.5z"/>
	<path d="M9.4,21v-3.8H10v0.6c0.1-0.3,0.3-0.4,0.4-0.5c0.1-0.1,0.3-0.1,0.4-0.1c0.2,0,0.4,0.1,0.7,0.2l-0.2,0.6
		c-0.2-0.1-0.3-0.1-0.5-0.1c-0.1,0-0.3,0-0.4,0.1c-0.1,0.1-0.2,0.2-0.2,0.3C10.1,18.5,10,18.7,10,19v2H9.4z"/>
	<path d="M14.3,20.5c-0.2,0.2-0.5,0.3-0.7,0.4s-0.5,0.1-0.7,0.1c-0.4,0-0.7-0.1-1-0.3c-0.2-0.2-0.3-0.5-0.3-0.8c0-0.2,0-0.4,0.1-0.5
		s0.2-0.3,0.3-0.4c0.1-0.1,0.3-0.2,0.5-0.2c0.1,0,0.3-0.1,0.6-0.1c0.5-0.1,0.9-0.1,1.1-0.2c0-0.1,0-0.1,0-0.2c0-0.3-0.1-0.4-0.2-0.5
		c-0.2-0.1-0.4-0.2-0.7-0.2c-0.3,0-0.5,0.1-0.7,0.2c-0.1,0.1-0.2,0.3-0.3,0.6l-0.6-0.1c0.1-0.3,0.2-0.5,0.3-0.6
		c0.1-0.2,0.3-0.3,0.6-0.4s0.5-0.1,0.9-0.1c0.3,0,0.6,0,0.8,0.1c0.2,0.1,0.3,0.2,0.4,0.3c0.1,0.1,0.2,0.3,0.2,0.4c0,0.1,0,0.3,0,0.6
		v0.9c0,0.6,0,1,0,1.1s0.1,0.3,0.2,0.5h-0.7C14.3,20.8,14.3,20.7,14.3,20.5z M14.2,19.1c-0.2,0.1-0.6,0.2-1,0.2
		c-0.3,0-0.4,0.1-0.6,0.1c-0.1,0-0.2,0.1-0.3,0.2c-0.1,0.1-0.1,0.2-0.1,0.3c0,0.2,0.1,0.3,0.2,0.4c0.1,0.1,0.3,0.2,0.6,0.2
		c0.2,0,0.5-0.1,0.7-0.2c0.2-0.1,0.3-0.3,0.4-0.4c0.1-0.1,0.1-0.4,0.1-0.6V19.1z"/>
	<path d="M15.9,21v-3.8h0.6v0.5c0.3-0.4,0.7-0.6,1.2-0.6c0.2,0,0.4,0,0.6,0.1c0.2,0.1,0.3,0.2,0.4,0.3c0.1,0.1,0.2,0.3,0.2,0.5
		c0,0.1,0,0.3,0,0.6V21h-0.6v-2.3c0-0.3,0-0.5-0.1-0.6s-0.1-0.2-0.3-0.3c-0.1-0.1-0.3-0.1-0.4-0.1c-0.3,0-0.5,0.1-0.7,0.3
		c-0.2,0.2-0.3,0.5-0.3,1V21H15.9z"/>
	<path d="M19.8,21.3l0.6,0.1c0,0.2,0.1,0.3,0.2,0.4c0.2,0.1,0.4,0.2,0.6,0.2c0.3,0,0.5-0.1,0.7-0.2c0.2-0.1,0.3-0.3,0.3-0.5
		c0-0.1,0-0.4,0-0.8c-0.3,0.3-0.6,0.5-1,0.5c-0.5,0-0.9-0.2-1.2-0.6c-0.3-0.4-0.4-0.8-0.4-1.3c0-0.4,0.1-0.7,0.2-1
		c0.1-0.3,0.3-0.5,0.6-0.7c0.2-0.2,0.5-0.2,0.9-0.2c0.4,0,0.8,0.2,1.1,0.5v-0.5H23v3.3c0,0.6-0.1,1-0.2,1.2
		c-0.1,0.2-0.3,0.4-0.6,0.6c-0.3,0.1-0.6,0.2-1,0.2c-0.4,0-0.8-0.1-1.1-0.3S19.8,21.7,19.8,21.3z M20.3,19c0,0.5,0.1,0.9,0.3,1.1
		c0.2,0.2,0.4,0.3,0.7,0.3c0.3,0,0.5-0.1,0.7-0.3c0.2-0.2,0.3-0.6,0.3-1.1c0-0.5-0.1-0.8-0.3-1c-0.2-0.2-0.5-0.4-0.7-0.4
		c-0.3,0-0.5,0.1-0.7,0.3C20.4,18.2,20.3,18.6,20.3,19z"/>
	<path d="M26,21v-5.2h1.8c0.4,0,0.7,0,0.9,0.1c0.3,0.1,0.6,0.2,0.8,0.4c0.3,0.2,0.5,0.5,0.6,0.9c0.1,0.4,0.2,0.8,0.2,1.2
		c0,0.4,0,0.7-0.1,1.1c-0.1,0.3-0.2,0.6-0.4,0.8c-0.1,0.2-0.3,0.4-0.5,0.5c-0.2,0.1-0.4,0.2-0.6,0.3c-0.2,0.1-0.5,0.1-0.8,0.1H26z
		 M26.7,20.4h1.1c0.3,0,0.6,0,0.8-0.1c0.2-0.1,0.4-0.2,0.5-0.3c0.2-0.2,0.3-0.4,0.4-0.7c0.1-0.3,0.1-0.6,0.1-1c0-0.5-0.1-1-0.3-1.3
		s-0.4-0.5-0.7-0.6c-0.2-0.1-0.5-0.1-0.9-0.1h-1.1V20.4z"/>
	<path d="M33.8,19.8l0.7,0.1c-0.1,0.4-0.3,0.7-0.6,0.9s-0.6,0.3-1.1,0.3c-0.6,0-1-0.2-1.3-0.5c-0.3-0.3-0.5-0.8-0.5-1.4
		c0-0.6,0.2-1.1,0.5-1.5c0.3-0.4,0.7-0.5,1.3-0.5c0.5,0,0.9,0.2,1.2,0.5s0.5,0.8,0.5,1.4c0,0,0,0.1,0,0.2h-2.8c0,0.4,0.1,0.7,0.4,1
		c0.2,0.2,0.5,0.3,0.8,0.3c0.2,0,0.4-0.1,0.6-0.2C33.6,20.2,33.7,20,33.8,19.8z M31.7,18.7h2.1c0-0.3-0.1-0.6-0.2-0.7
		c-0.2-0.2-0.5-0.4-0.8-0.4c-0.3,0-0.5,0.1-0.7,0.3S31.7,18.4,31.7,18.7z"/>
	<path d="M36.3,21l-1.4-3.8h0.7l0.8,2.3c0.1,0.2,0.2,0.5,0.2,0.8c0.1-0.2,0.1-0.4,0.2-0.7l0.8-2.3h0.7L36.9,21H36.3z"/>
	<path d="M41.5,19.8l0.7,0.1c-0.1,0.4-0.3,0.7-0.6,0.9s-0.6,0.3-1.1,0.3c-0.6,0-1-0.2-1.3-0.5c-0.3-0.3-0.5-0.8-0.5-1.4
		c0-0.6,0.2-1.1,0.5-1.5c0.3-0.4,0.7-0.5,1.3-0.5c0.5,0,0.9,0.2,1.2,0.5s0.5,0.8,0.5,1.4c0,0,0,0.1,0,0.2h-2.8c0,0.4,0.1,0.7,0.4,1
		c0.2,0.2,0.5,0.3,0.8,0.3c0.2,0,0.4-0.1,0.6-0.2C41.2,20.2,41.4,20,41.5,19.8z M39.4,18.7h2.1c0-0.3-0.1-0.6-0.2-0.7
		c-0.2-0.2-0.5-0.4-0.8-0.4c-0.3,0-0.5,0.1-0.7,0.3S39.4,18.4,39.4,18.7z"/>
	<path d="M42.9,21v-5.2h0.6V21H42.9z"/>
	<path d="M44.3,19.1c0-0.7,0.2-1.2,0.6-1.5c0.3-0.3,0.7-0.4,1.2-0.4c0.5,0,0.9,0.2,1.3,0.5c0.3,0.3,0.5,0.8,0.5,1.4
		c0,0.5-0.1,0.9-0.2,1.1c-0.1,0.3-0.4,0.5-0.6,0.6c-0.3,0.2-0.6,0.2-0.9,0.2c-0.5,0-1-0.2-1.3-0.5C44.5,20.2,44.3,19.7,44.3,19.1z
		 M45,19.1c0,0.5,0.1,0.8,0.3,1.1c0.2,0.2,0.5,0.4,0.8,0.4c0.3,0,0.6-0.1,0.8-0.4c0.2-0.2,0.3-0.6,0.3-1.1c0-0.5-0.1-0.8-0.3-1.1
		c-0.2-0.2-0.5-0.4-0.8-0.4c-0.3,0-0.6,0.1-0.8,0.4C45.1,18.2,45,18.6,45,19.1z"/>
	<path d="M48.6,22.4v-5.2h0.6v0.5c0.1-0.2,0.3-0.3,0.5-0.4s0.4-0.1,0.6-0.1c0.3,0,0.6,0.1,0.9,0.2c0.2,0.2,0.4,0.4,0.6,0.7
		s0.2,0.6,0.2,1c0,0.4-0.1,0.7-0.2,1s-0.3,0.5-0.6,0.7c-0.3,0.2-0.5,0.2-0.8,0.2c-0.2,0-0.4,0-0.6-0.1s-0.3-0.2-0.4-0.3v1.8H48.6z
		 M49.2,19.1c0,0.5,0.1,0.8,0.3,1.1c0.2,0.2,0.4,0.3,0.7,0.3c0.3,0,0.5-0.1,0.7-0.4s0.3-0.6,0.3-1.1c0-0.5-0.1-0.8-0.3-1.1
		c-0.2-0.2-0.4-0.4-0.7-0.4c-0.3,0-0.5,0.1-0.7,0.4C49.3,18.2,49.2,18.6,49.2,19.1z"/>
	<path d="M55.2,19.8l0.7,0.1c-0.1,0.4-0.3,0.7-0.6,0.9s-0.6,0.3-1.1,0.3c-0.6,0-1-0.2-1.3-0.5c-0.3-0.3-0.5-0.8-0.5-1.4
		c0-0.6,0.2-1.1,0.5-1.5c0.3-0.4,0.7-0.5,1.3-0.5c0.5,0,0.9,0.2,1.2,0.5s0.5,0.8,0.5,1.4c0,0,0,0.1,0,0.2h-2.8c0,0.4,0.1,0.7,0.4,1
		c0.2,0.2,0.5,0.3,0.8,0.3c0.2,0,0.4-0.1,0.6-0.2C55,20.2,55.1,20,55.2,19.8z M53.1,18.7h2.1c0-0.3-0.1-0.6-0.2-0.7
		c-0.2-0.2-0.5-0.4-0.8-0.4c-0.3,0-0.5,0.1-0.7,0.3S53.1,18.4,53.1,18.7z"/>
	<path d="M56.7,21v-3.8h0.6v0.6c0.1-0.3,0.3-0.4,0.4-0.5c0.1-0.1,0.3-0.1,0.4-0.1c0.2,0,0.4,0.1,0.7,0.2l-0.2,0.6
		c-0.2-0.1-0.3-0.1-0.5-0.1c-0.1,0-0.3,0-0.4,0.1s-0.2,0.2-0.2,0.3c-0.1,0.2-0.1,0.5-0.1,0.7v2H56.7z"/>
	<path d="M62.5,21v-4.6h-1.7v-0.6h4.1v0.6h-1.7V21H62.5z"/>
	<path d="M68.1,19.8l0.7,0.1c-0.1,0.4-0.3,0.7-0.6,0.9s-0.6,0.3-1.1,0.3c-0.6,0-1-0.2-1.3-0.5c-0.3-0.3-0.5-0.8-0.5-1.4
		c0-0.6,0.2-1.1,0.5-1.5c0.3-0.4,0.7-0.5,1.3-0.5c0.5,0,0.9,0.2,1.2,0.5s0.5,0.8,0.5,1.4c0,0,0,0.1,0,0.2H66c0,0.4,0.1,0.7,0.4,1
		c0.2,0.2,0.5,0.3,0.8,0.3c0.2,0,0.4-0.1,0.6-0.2C67.9,20.2,68,20,68.1,19.8z M66,18.7h2.1c0-0.3-0.1-0.6-0.2-0.7
		c-0.2-0.2-0.5-0.4-0.8-0.4c-0.3,0-0.5,0.1-0.7,0.3S66,18.4,66,18.7z"/>
	<path d="M72,20.5c-0.2,0.2-0.5,0.3-0.7,0.4s-0.5,0.1-0.7,0.1c-0.4,0-0.7-0.1-1-0.3c-0.2-0.2-0.3-0.5-0.3-0.8c0-0.2,0-0.4,0.1-0.5
		s0.2-0.3,0.3-0.4c0.1-0.1,0.3-0.2,0.5-0.2c0.1,0,0.3-0.1,0.6-0.1c0.5-0.1,0.9-0.1,1.1-0.2c0-0.1,0-0.1,0-0.2c0-0.3-0.1-0.4-0.2-0.5
		c-0.2-0.1-0.4-0.2-0.7-0.2c-0.3,0-0.5,0.1-0.7,0.2c-0.1,0.1-0.2,0.3-0.3,0.6l-0.6-0.1c0.1-0.3,0.2-0.5,0.3-0.6
		c0.1-0.2,0.3-0.3,0.6-0.4s0.5-0.1,0.9-0.1c0.3,0,0.6,0,0.8,0.1c0.2,0.1,0.3,0.2,0.4,0.3c0.1,0.1,0.2,0.3,0.2,0.4c0,0.1,0,0.3,0,0.6
		v0.9c0,0.6,0,1,0,1.1s0.1,0.3,0.2,0.5h-0.7C72.1,20.8,72.1,20.7,72,20.5z M72,19.1c-0.2,0.1-0.6,0.2-1,0.2c-0.3,0-0.4,0.1-0.6,0.1
		c-0.1,0-0.2,0.1-0.3,0.2C70.1,19.7,70,19.8,70,20c0,0.2,0.1,0.3,0.2,0.4c0.1,0.1,0.3,0.2,0.6,0.2c0.2,0,0.5-0.1,0.7-0.2
		c0.2-0.1,0.3-0.3,0.4-0.4c0.1-0.1,0.1-0.4,0.1-0.6V19.1z"/>
	<path d="M73.6,21v-3.8h0.6v0.5c0.1-0.2,0.3-0.3,0.5-0.4s0.4-0.2,0.7-0.2c0.3,0,0.5,0.1,0.7,0.2s0.3,0.3,0.4,0.5
		c0.3-0.4,0.7-0.7,1.2-0.7c0.4,0,0.7,0.1,0.9,0.3s0.3,0.5,0.3,1V21h-0.6v-2.4c0-0.3,0-0.4-0.1-0.6c0-0.1-0.1-0.2-0.2-0.3
		c-0.1-0.1-0.2-0.1-0.4-0.1c-0.3,0-0.5,0.1-0.7,0.3c-0.2,0.2-0.3,0.5-0.3,0.8V21h-0.6v-2.4c0-0.3-0.1-0.5-0.2-0.6
		c-0.1-0.1-0.3-0.2-0.5-0.2c-0.2,0-0.3,0-0.5,0.1s-0.3,0.2-0.3,0.4c-0.1,0.2-0.1,0.4-0.1,0.8v2H73.6z"/>
</g>
</svg>
