<svg width="17" height="16" viewBox="0 0 17 16" fill="none" xmlns="http://www.w3.org/2000/svg">
<path d="M14.4334 6.56667L14.8268 13.16C14.8401 13.34 14.7534 13.46 14.7068 13.5133C14.6534 13.5733 14.5401 13.6667 14.3534 13.6667H12.5334L13.9734 6.56667H14.4334ZM15.1668 4L15.1601 4.01333C15.1734 4.17333 15.1601 4.34 15.1201 4.50667L10.2068 13.5267C10.0468 14.2 9.44675 14.6667 8.75342 14.6667H14.3534C15.2134 14.6667 15.8934 13.94 15.8268 13.08L15.1668 4Z" fill="#2C2C2C"/>
<path d="M8.13333 1.49333C8.19999 1.22666 8.03333 0.953328 7.76666 0.886661C7.49999 0.826661 7.22666 0.986661 7.15999 1.25333L6.82666 2.63333H7.85333L8.13333 1.49333Z" fill="#2C2C2C"/>
<path d="M12.5334 1.47331C12.5934 1.19997 12.4201 0.939975 12.1468 0.879975C11.8801 0.819975 11.6134 0.993308 11.5534 1.26664L11.2534 2.64664H12.2801L12.5334 1.47331Z" fill="#2C2C2C"/>
<path d="M15.0468 3.55331C14.8268 3.01998 14.3068 2.63998 13.6668 2.63998H12.2802L11.9068 4.36665C11.8535 4.59998 11.6468 4.75998 11.4202 4.75998C11.3868 4.75998 11.3468 4.75998 11.3135 4.74665C11.0468 4.68665 10.8735 4.41998 10.9268 4.15331L11.2535 2.63331H7.8535L7.4335 4.36665C7.38016 4.59331 7.1735 4.74665 6.94683 4.74665C6.90683 4.74665 6.86683 4.73998 6.82683 4.73331C6.56016 4.66665 6.3935 4.39998 6.46016 4.12665L6.82016 2.62665H5.46683C4.8135 2.62665 4.2335 3.05331 4.04016 3.67998L1.2335 12.7133C0.940162 13.68 1.6535 14.6666 2.66016 14.6666H11.4202C12.1135 14.6666 12.7135 14.2 12.8735 13.5266L15.1202 4.50665C15.1602 4.33998 15.1735 4.17331 15.1602 4.01331C15.1468 3.85331 15.1135 3.69331 15.0468 3.55331ZM10.3002 11.1666H4.96683C4.6935 11.1666 4.46683 10.94 4.46683 10.6666C4.46683 10.3933 4.6935 10.1666 4.96683 10.1666H10.3002C10.5735 10.1666 10.8002 10.3933 10.8002 10.6666C10.8002 10.94 10.5735 11.1666 10.3002 11.1666ZM10.9668 8.49998H5.6335C5.36016 8.49998 5.1335 8.27331 5.1335 7.99998C5.1335 7.72665 5.36016 7.49998 5.6335 7.49998H10.9668C11.2402 7.49998 11.4668 7.72665 11.4668 7.99998C11.4668 8.27331 11.2402 8.49998 10.9668 8.49998Z" fill="#2C2C2C"/>
</svg>
