<svg width="21" height="20" viewBox="0 0 21 20" fill="none" xmlns="http://www.w3.org/2000/svg">
<path d="M18.417 7.5453L18.4216 7.60833H18.3827L18.417 7.5453ZM17.8169 17.7333H12.94C13.05 17.5481 13.1369 17.3459 13.1961 17.1299L15.943 12.0871L14.9539 16.9641L14.808 17.6833H15.5419H17.8169C18.2738 17.6833 18.5665 17.4483 18.707 17.2903L18.707 17.2903L18.7101 17.2868C18.8175 17.164 19.0389 16.862 19.0073 16.4106L18.7596 12.2585L19.0601 16.3935L19.0604 16.3964C19.1164 17.1194 18.5456 17.7333 17.8169 17.7333Z" fill="#00CFCE" stroke="#00CFCE" stroke-width="1.2"/>
<path d="M10.0415 1.86671C10.1249 1.53337 9.91654 1.19171 9.5832 1.10837C9.24987 1.03337 8.9082 1.23337 8.82487 1.56671L8.4082 3.29171H9.69154L10.0415 1.86671Z" fill="#00CFCE"/>
<path d="M15.5419 1.84171C15.6169 1.50004 15.4002 1.17504 15.0586 1.10004C14.7252 1.02504 14.3919 1.24171 14.3169 1.58338L13.9419 3.30838H15.2252L15.5419 1.84171Z" fill="#00CFCE"/>
<path d="M18.6833 4.44166C18.4083 3.77499 17.7583 3.29999 16.9583 3.29999H15.225L14.7583 5.45833C14.6916 5.74999 14.4333 5.94999 14.15 5.94999C14.1083 5.94999 14.0583 5.94999 14.0166 5.93333C13.6833 5.85833 13.4666 5.52499 13.5333 5.19166L13.9416 3.29166H9.69162L9.16662 5.45833C9.09996 5.74166 8.84163 5.93333 8.55829 5.93333C8.50829 5.93333 8.45829 5.92499 8.40829 5.91666C8.07496 5.83333 7.86662 5.49999 7.94996 5.15833L8.39996 3.28333H6.70829C5.89162 3.28333 5.16662 3.81666 4.92496 4.59999L1.41662 15.8917C1.04996 17.1 1.94162 18.3333 3.19996 18.3333H14.15C15.0166 18.3333 15.7666 17.75 15.9666 16.9083L18.775 5.63333C18.825 5.42499 18.8416 5.21666 18.825 5.01666C18.8083 4.81666 18.7666 4.61666 18.6833 4.44166ZM12.75 13.9583H6.08329C5.74162 13.9583 5.45829 13.675 5.45829 13.3333C5.45829 12.9917 5.74162 12.7083 6.08329 12.7083H12.75C13.0916 12.7083 13.375 12.9917 13.375 13.3333C13.375 13.675 13.0916 13.9583 12.75 13.9583ZM13.5833 10.625H6.91662C6.57496 10.625 6.29162 10.3417 6.29162 9.99999C6.29162 9.65833 6.57496 9.37499 6.91662 9.37499H13.5833C13.925 9.37499 14.2083 9.65833 14.2083 9.99999C14.2083 10.3417 13.925 10.625 13.5833 10.625Z" fill="#00CFCE"/>
</svg>
