<svg width="17" height="16" viewBox="0 0 17 16" fill="none" xmlns="http://www.w3.org/2000/svg">
<path d="M5.8335 3.83331C5.56016 3.83331 5.3335 3.60665 5.3335 3.33331V1.33331C5.3335 1.05998 5.56016 0.833313 5.8335 0.833313C6.10683 0.833313 6.3335 1.05998 6.3335 1.33331V3.33331C6.3335 3.60665 6.10683 3.83331 5.8335 3.83331Z" fill="#7B7B7B"/>
<path d="M11.1665 3.83331C10.8932 3.83331 10.6665 3.60665 10.6665 3.33331V1.33331C10.6665 1.05998 10.8932 0.833313 11.1665 0.833313C11.4398 0.833313 11.6665 1.05998 11.6665 1.33331V3.33331C11.6665 3.60665 11.4398 3.83331 11.1665 3.83331Z" fill="#7B7B7B"/>
<path d="M11.1667 15.1666H5.83333C3.4 15.1666 2 13.7666 2 11.3333V5.66665C2 3.23331 3.4 1.83331 5.83333 1.83331H11.1667C13.6 1.83331 15 3.23331 15 5.66665V11.3333C15 13.7666 13.6 15.1666 11.1667 15.1666ZM5.83333 2.83331C3.92667 2.83331 3 3.75998 3 5.66665V11.3333C3 13.24 3.92667 14.1666 5.83333 14.1666H11.1667C13.0733 14.1666 14 13.24 14 11.3333V5.66665C14 3.75998 13.0733 2.83331 11.1667 2.83331H5.83333Z" fill="#7B7B7B"/>
<path d="M11.1668 7.83331H5.8335C5.56016 7.83331 5.3335 7.60665 5.3335 7.33331C5.3335 7.05998 5.56016 6.83331 5.8335 6.83331H11.1668C11.4402 6.83331 11.6668 7.05998 11.6668 7.33331C11.6668 7.60665 11.4402 7.83331 11.1668 7.83331Z" fill="#7B7B7B"/>
<path d="M8.50016 11.1667H5.8335C5.56016 11.1667 5.3335 10.94 5.3335 10.6667C5.3335 10.3934 5.56016 10.1667 5.8335 10.1667H8.50016C8.7735 10.1667 9.00016 10.3934 9.00016 10.6667C9.00016 10.94 8.7735 11.1667 8.50016 11.1667Z" fill="#7B7B7B"/>
</svg>
