<svg width="24" height="24" viewBox="0 0 24 24" fill="none" xmlns="http://www.w3.org/2000/svg">
<path d="M17 21.25H7C3.35 21.25 1.25 19.15 1.25 15.5V8.5C1.25 4.85 3.35 2.75 7 2.75H14C14.41 2.75 14.75 3.09 14.75 3.5C14.75 3.91 14.41 4.25 14 4.25H7C4.14 4.25 2.75 5.64 2.75 8.5V15.5C2.75 18.36 4.14 19.75 7 19.75H17C19.86 19.75 21.25 18.36 21.25 15.5V10.5C21.25 10.09 21.59 9.75 22 9.75C22.41 9.75 22.75 10.09 22.75 10.5V15.5C22.75 19.15 20.65 21.25 17 21.25Z" fill="#121212"/>
<path d="M11.9991 12.869C11.1591 12.869 10.3091 12.609 9.65907 12.079L6.52907 9.579C6.38352 9.45262 6.29238 9.27493 6.27466 9.08298C6.25693 8.89104 6.31399 8.69966 6.43393 8.54876C6.55388 8.39786 6.72745 8.2991 6.91844 8.27306C7.10944 8.24702 7.30311 8.29572 7.45907 8.409L10.5891 10.909C11.3491 11.519 12.6391 11.519 13.3991 10.909L14.5791 9.969C14.8991 9.709 15.3791 9.759 15.6291 10.089C15.8891 10.409 15.8391 10.889 15.5091 11.139L14.3291 12.079C13.6891 12.609 12.8391 12.869 11.9991 12.869ZM19.5001 8.75C17.7101 8.75 16.2501 7.29 16.2501 5.5C16.2501 3.71 17.7101 2.25 19.5001 2.25C21.2901 2.25 22.7501 3.71 22.7501 5.5C22.7501 7.29 21.2901 8.75 19.5001 8.75ZM19.5001 3.75C18.5401 3.75 17.7501 4.54 17.7501 5.5C17.7501 6.46 18.5401 7.25 19.5001 7.25C20.4601 7.25 21.2501 6.46 21.2501 5.5C21.2501 4.54 20.4601 3.75 19.5001 3.75Z" fill="#00CFCE"/>
<path d="M11.9991 12.869C11.1591 12.869 10.3091 12.609 9.65907 12.079L6.52907 9.57898C6.38352 9.45259 6.29238 9.2749 6.27466 9.08296C6.25693 8.89101 6.31399 8.69964 6.43393 8.54874C6.55388 8.39784 6.72745 8.29907 6.91844 8.27303C7.10944 8.24699 7.30311 8.29569 7.45907 8.40898L10.5891 10.909C11.3491 11.519 12.6391 11.519 13.3991 10.909L14.5791 9.96898C14.8991 9.70898 15.3791 9.75897 15.6291 10.089C15.8891 10.409 15.8391 10.889 15.5091 11.139L14.3291 12.079C13.6891 12.609 12.8391 12.869 11.9991 12.869Z" fill="#121212"/>
</svg>
