<svg id="Layer_1" data-name="Layer 1" xmlns="http://www.w3.org/2000/svg" viewBox="0 0 232 232"><defs><style>.cls-1,.cls-4{opacity:0.5;}.cls-2,.cls-4{fill:#e8eaec;}.cls-3{fill:#cbcaca;opacity:0.6;}.cls-3,.cls-4{isolation:isolate;}</style></defs><g class="cls-1"><circle class="cls-2" cx="2" cy="2" r="2"/><circle class="cls-2" cx="14" cy="2" r="2"/><circle class="cls-2" cx="26" cy="2" r="2"/><circle class="cls-3" cx="38" cy="2" r="2"/><circle class="cls-2" cx="50" cy="2" r="2"/><circle class="cls-2" cx="62" cy="2" r="2"/><circle class="cls-4" cx="74" cy="2" r="2"/><circle class="cls-3" cx="86" cy="2" r="2"/><circle class="cls-2" cx="98" cy="2" r="2"/><circle class="cls-2" cx="110" cy="2" r="2"/><circle class="cls-3" cx="122" cy="2" r="2"/><circle class="cls-3" cx="134" cy="2" r="2"/><circle class="cls-3" cx="146" cy="2" r="2"/><circle class="cls-4" cx="158" cy="2" r="2"/><circle class="cls-4" cx="170" cy="2" r="2"/><circle class="cls-2" cx="182" cy="2" r="2"/><circle class="cls-3" cx="194" cy="2" r="2"/><circle class="cls-2" cx="206" cy="2" r="2"/><circle class="cls-2" cx="218" cy="2" r="2"/><circle class="cls-3" cx="230" cy="2" r="2"/><circle class="cls-3" cx="2" cy="14" r="2"/><circle class="cls-3" cx="14" cy="14" r="2"/><circle class="cls-4" cx="26" cy="14" r="2"/><circle class="cls-2" cx="38" cy="14" r="2"/><circle class="cls-4" cx="50" cy="14" r="2"/><circle class="cls-2" cx="62" cy="14" r="2"/><circle class="cls-2" cx="74" cy="14" r="2"/><circle class="cls-2" cx="86" cy="14" r="2"/><circle class="cls-4" cx="98" cy="14" r="2"/><circle class="cls-2" cx="110" cy="14" r="2"/><circle class="cls-2" cx="122" cy="14" r="2"/><circle class="cls-2" cx="134" cy="14" r="2"/><circle class="cls-3" cx="146" cy="14" r="2"/><circle class="cls-2" cx="158" cy="14" r="2"/><circle class="cls-4" cx="170" cy="14" r="2"/><circle class="cls-3" cx="182" cy="14" r="2"/><circle class="cls-4" cx="194" cy="14" r="2"/><circle class="cls-3" cx="206" cy="14" r="2"/><circle class="cls-2" cx="218" cy="14" r="2"/><circle class="cls-4" cx="230" cy="14" r="2"/><circle class="cls-4" cx="2" cy="26" r="2"/><circle class="cls-2" cx="14" cy="26" r="2"/><circle class="cls-2" cx="26" cy="26" r="2"/><circle class="cls-3" cx="38" cy="26" r="2"/><circle class="cls-4" cx="50" cy="26" r="2"/><circle class="cls-2" cx="62" cy="26" r="2"/><circle class="cls-4" cx="74" cy="26" r="2"/><circle class="cls-2" cx="86" cy="26" r="2"/><circle class="cls-3" cx="98" cy="26" r="2"/><circle class="cls-3" cx="110" cy="26" r="2"/><circle class="cls-2" cx="122" cy="26" r="2"/><circle class="cls-4" cx="134" cy="26" r="2"/><circle class="cls-2" cx="146" cy="26" r="2"/><circle class="cls-2" cx="158" cy="26" r="2"/><circle class="cls-2" cx="170" cy="26" r="2"/><circle class="cls-4" cx="182" cy="26" r="2"/><circle class="cls-4" cx="194" cy="26" r="2"/><circle class="cls-2" cx="206" cy="26" r="2"/><circle class="cls-3" cx="218" cy="26" r="2"/><circle class="cls-2" cx="230" cy="26" r="2"/><circle class="cls-4" cx="2" cy="38" r="2"/><circle class="cls-3" cx="14" cy="38" r="2"/><circle class="cls-2" cx="26" cy="38" r="2"/><circle class="cls-2" cx="38" cy="38" r="2"/><circle class="cls-4" cx="50" cy="38" r="2"/><circle class="cls-3" cx="62" cy="38" r="2"/><circle class="cls-3" cx="74" cy="38" r="2"/><circle class="cls-2" cx="86" cy="38" r="2"/><circle class="cls-2" cx="98" cy="38" r="2"/><circle class="cls-3" cx="110" cy="38" r="2"/><circle class="cls-3" cx="122" cy="38" r="2"/><circle class="cls-2" cx="134" cy="38" r="2"/><circle class="cls-2" cx="146" cy="38" r="2"/><circle class="cls-2" cx="158" cy="38" r="2"/><circle class="cls-3" cx="170" cy="38" r="2"/><circle class="cls-3" cx="182" cy="38" r="2"/><circle class="cls-2" cx="194" cy="38" r="2"/><circle class="cls-4" cx="206" cy="38" r="2"/><circle class="cls-2" cx="218" cy="38" r="2"/><circle class="cls-2" cx="230" cy="38" r="2"/><circle class="cls-3" cx="2" cy="50" r="2"/><circle class="cls-2" cx="14" cy="50" r="2"/><circle class="cls-2" cx="26" cy="50" r="2"/><circle class="cls-4" cx="38" cy="50" r="2"/><circle class="cls-4" cx="50" cy="50" r="2"/><circle class="cls-2" cx="62" cy="50" r="2"/><circle class="cls-2" cx="74" cy="50" r="2"/><circle class="cls-4" cx="86" cy="50" r="2"/><circle class="cls-2" cx="98" cy="50" r="2"/><circle class="cls-2" cx="110" cy="50" r="2"/><circle class="cls-3" cx="122" cy="50" r="2"/><circle class="cls-2" cx="134" cy="50" r="2"/><circle class="cls-4" cx="146" cy="50" r="2"/><circle class="cls-4" cx="158" cy="50" r="2"/><circle class="cls-3" cx="170" cy="50" r="2"/><circle class="cls-2" cx="182" cy="50" r="2"/><circle class="cls-4" cx="194" cy="50" r="2"/><circle class="cls-4" cx="206" cy="50" r="2"/><circle class="cls-2" cx="218" cy="50" r="2"/><circle class="cls-2" cx="230" cy="50" r="2"/><circle class="cls-2" cx="2" cy="62" r="2"/><circle class="cls-4" cx="14" cy="62" r="2"/><circle class="cls-2" cx="26" cy="62" r="2"/><circle class="cls-4" cx="38" cy="62" r="2"/><circle class="cls-2" cx="50" cy="62" r="2"/><circle class="cls-4" cx="62" cy="62" r="2"/><circle class="cls-4" cx="74" cy="62" r="2"/><circle class="cls-2" cx="86" cy="62" r="2"/><circle class="cls-2" cx="98" cy="62" r="2"/><circle class="cls-2" cx="110" cy="62" r="2"/><circle class="cls-2" cx="122" cy="62" r="2"/><circle class="cls-2" cx="134" cy="62" r="2"/><circle class="cls-2" cx="146" cy="62" r="2"/><circle class="cls-2" cx="158" cy="62" r="2"/><circle class="cls-4" cx="170" cy="62" r="2"/><circle class="cls-2" cx="182" cy="62" r="2"/><circle class="cls-4" cx="194" cy="62" r="2"/><circle class="cls-4" cx="206" cy="62" r="2"/><circle class="cls-4" cx="218" cy="62" r="2"/><circle class="cls-3" cx="230" cy="62" r="2"/><circle class="cls-2" cx="2" cy="74" r="2"/><circle class="cls-4" cx="14" cy="74" r="2"/><circle class="cls-2" cx="26" cy="74" r="2"/><circle class="cls-2" cx="38" cy="74" r="2"/><circle class="cls-4" cx="50" cy="74" r="2"/><circle class="cls-2" cx="62" cy="74" r="2"/><circle class="cls-2" cx="74" cy="74" r="2"/><circle class="cls-2" cx="86" cy="74" r="2"/><circle class="cls-3" cx="98" cy="74" r="2"/><circle class="cls-4" cx="110" cy="74" r="2"/><circle class="cls-2" cx="122" cy="74" r="2"/><circle class="cls-2" cx="134" cy="74" r="2"/><circle class="cls-2" cx="146" cy="74" r="2"/><circle class="cls-4" cx="158" cy="74" r="2"/><circle class="cls-3" cx="170" cy="74" r="2"/><circle class="cls-3" cx="182" cy="74" r="2"/><circle class="cls-2" cx="194" cy="74" r="2"/><circle class="cls-2" cx="206" cy="74" r="2"/><circle class="cls-4" cx="218" cy="74" r="2"/><circle class="cls-2" cx="230" cy="74" r="2"/><circle class="cls-2" cx="2" cy="86" r="2"/><circle class="cls-4" cx="14" cy="86" r="2"/><circle class="cls-4" cx="26" cy="86" r="2"/><circle class="cls-2" cx="38" cy="86" r="2"/><circle class="cls-2" cx="50" cy="86" r="2"/><circle class="cls-2" cx="62" cy="86" r="2"/><circle class="cls-3" cx="74" cy="86" r="2"/><circle class="cls-4" cx="86" cy="86" r="2"/><circle class="cls-4" cx="98" cy="86" r="2"/><circle class="cls-2" cx="110" cy="86" r="2"/><circle class="cls-2" cx="122" cy="86" r="2"/><circle class="cls-3" cx="134" cy="86" r="2"/><circle class="cls-4" cx="146" cy="86" r="2"/><circle class="cls-2" cx="158" cy="86" r="2"/><circle class="cls-2" cx="170" cy="86" r="2"/><circle class="cls-2" cx="182" cy="86" r="2"/><circle class="cls-2" cx="194" cy="86" r="2"/><circle class="cls-4" cx="206" cy="86" r="2"/><circle class="cls-2" cx="218" cy="86" r="2"/><circle class="cls-2" cx="230" cy="86" r="2"/><circle class="cls-2" cx="2" cy="98" r="2"/><circle class="cls-4" cx="14" cy="98" r="2"/><circle class="cls-3" cx="26" cy="98" r="2"/><circle class="cls-2" cx="38" cy="98" r="2"/><circle class="cls-2" cx="50" cy="98" r="2"/><circle class="cls-3" cx="62" cy="98" r="2"/><circle class="cls-2" cx="74" cy="98" r="2"/><circle class="cls-2" cx="86" cy="98" r="2"/><circle class="cls-2" cx="98" cy="98" r="2"/><circle class="cls-2" cx="110" cy="98" r="2"/><circle class="cls-4" cx="122" cy="98" r="2"/><circle class="cls-3" cx="134" cy="98" r="2"/><circle class="cls-3" cx="146" cy="98" r="2"/><circle class="cls-3" cx="158" cy="98" r="2"/><circle class="cls-2" cx="170" cy="98" r="2"/><circle class="cls-3" cx="182" cy="98" r="2"/><circle class="cls-4" cx="194" cy="98" r="2"/><circle class="cls-2" cx="206" cy="98" r="2"/><circle class="cls-2" cx="218" cy="98" r="2"/><circle class="cls-2" cx="230" cy="98" r="2"/><circle class="cls-3" cx="2" cy="110" r="2"/><circle class="cls-2" cx="14" cy="110" r="2"/><circle class="cls-4" cx="26" cy="110" r="2"/><circle class="cls-2" cx="38" cy="110" r="2"/><circle class="cls-2" cx="50" cy="110" r="2"/><circle class="cls-2" cx="62" cy="110" r="2"/><circle class="cls-4" cx="74" cy="110" r="2"/><circle class="cls-4" cx="86" cy="110" r="2"/><circle class="cls-3" cx="98" cy="110" r="2"/><circle class="cls-4" cx="110" cy="110" r="2"/><circle class="cls-3" cx="122" cy="110" r="2"/><circle class="cls-4" cx="134" cy="110" r="2"/><circle class="cls-2" cx="146" cy="110" r="2"/><circle class="cls-3" cx="158" cy="110" r="2"/><circle class="cls-4" cx="170" cy="110" r="2"/><circle class="cls-3" cx="182" cy="110" r="2"/><circle class="cls-2" cx="194" cy="110" r="2"/><circle class="cls-2" cx="206" cy="110" r="2"/><circle class="cls-3" cx="218" cy="110" r="2"/><circle class="cls-3" cx="230" cy="110" r="2"/><circle class="cls-4" cx="2" cy="122" r="2"/><circle class="cls-4" cx="14" cy="122" r="2"/><circle class="cls-2" cx="26" cy="122" r="2"/><circle class="cls-2" cx="38" cy="122" r="2"/><circle class="cls-2" cx="50" cy="122" r="2"/><circle class="cls-2" cx="62" cy="122" r="2"/><circle class="cls-2" cx="74" cy="122" r="2"/><circle class="cls-2" cx="86" cy="122" r="2"/><circle class="cls-3" cx="98" cy="122" r="2"/><circle class="cls-2" cx="110" cy="122" r="2"/><circle class="cls-4" cx="122" cy="122" r="2"/><circle class="cls-2" cx="134" cy="122" r="2"/><circle class="cls-3" cx="146" cy="122" r="2"/><circle class="cls-2" cx="158" cy="122" r="2"/><circle class="cls-2" cx="170" cy="122" r="2"/><circle class="cls-3" cx="182" cy="122" r="2"/><circle class="cls-3" cx="194" cy="122" r="2"/><circle class="cls-4" cx="206" cy="122" r="2"/><circle class="cls-3" cx="218" cy="122" r="2"/><circle class="cls-3" cx="230" cy="122" r="2"/><circle class="cls-3" cx="2" cy="134" r="2"/><circle class="cls-2" cx="14" cy="134" r="2"/><circle class="cls-3" cx="26" cy="134" r="2"/><circle class="cls-2" cx="38" cy="134" r="2"/><circle class="cls-2" cx="50" cy="134" r="2"/><circle class="cls-2" cx="62" cy="134" r="2"/><circle class="cls-4" cx="74" cy="134" r="2"/><circle class="cls-2" cx="86" cy="134" r="2"/><circle class="cls-2" cx="98" cy="134" r="2"/><circle class="cls-3" cx="110" cy="134" r="2"/><circle class="cls-4" cx="122" cy="134" r="2"/><circle class="cls-2" cx="134" cy="134" r="2"/><circle class="cls-2" cx="146" cy="134" r="2"/><circle class="cls-4" cx="158" cy="134" r="2"/><circle class="cls-2" cx="170" cy="134" r="2"/><circle class="cls-2" cx="182" cy="134" r="2"/><circle class="cls-2" cx="194" cy="134" r="2"/><circle class="cls-4" cx="206" cy="134" r="2"/><circle class="cls-3" cx="218" cy="134" r="2"/><circle class="cls-3" cx="230" cy="134" r="2"/><circle class="cls-2" cx="2" cy="146" r="2"/><circle class="cls-4" cx="14" cy="146" r="2"/><circle class="cls-4" cx="26" cy="146" r="2"/><circle class="cls-2" cx="38" cy="146" r="2"/><circle class="cls-2" cx="50" cy="146" r="2"/><circle class="cls-3" cx="62" cy="146" r="2"/><circle class="cls-3" cx="74" cy="146" r="2"/><circle class="cls-2" cx="86" cy="146" r="2"/><circle class="cls-3" cx="98" cy="146" r="2"/><circle class="cls-3" cx="110" cy="146" r="2"/><circle class="cls-3" cx="122" cy="146" r="2"/><circle class="cls-2" cx="134" cy="146" r="2"/><circle class="cls-2" cx="146" cy="146" r="2"/><circle class="cls-2" cx="158" cy="146" r="2"/><circle class="cls-2" cx="170" cy="146" r="2"/><circle class="cls-4" cx="182" cy="146" r="2"/><circle class="cls-2" cx="194" cy="146" r="2"/><circle class="cls-3" cx="206" cy="146" r="2"/><circle class="cls-2" cx="218" cy="146" r="2"/><circle class="cls-4" cx="230" cy="146" r="2"/><circle class="cls-2" cx="2" cy="158" r="2"/><circle class="cls-4" cx="14" cy="158" r="2"/><circle class="cls-4" cx="26" cy="158" r="2"/><circle class="cls-3" cx="38" cy="158" r="2"/><circle class="cls-4" cx="50" cy="158" r="2"/><circle class="cls-4" cx="62" cy="158" r="2"/><circle class="cls-2" cx="74" cy="158" r="2"/><circle class="cls-2" cx="86" cy="158" r="2"/><circle class="cls-2" cx="98" cy="158" r="2"/><circle class="cls-3" cx="110" cy="158" r="2"/><circle class="cls-3" cx="122" cy="158" r="2"/><circle class="cls-4" cx="134" cy="158" r="2"/><circle class="cls-3" cx="146" cy="158" r="2"/><circle class="cls-4" cx="158" cy="158" r="2"/><circle class="cls-2" cx="170" cy="158" r="2"/><circle class="cls-3" cx="182" cy="158" r="2"/><circle class="cls-2" cx="194" cy="158" r="2"/><circle class="cls-3" cx="206" cy="158" r="2"/><circle class="cls-4" cx="218" cy="158" r="2"/><circle class="cls-2" cx="230" cy="158" r="2"/><circle class="cls-2" cx="2" cy="170" r="2"/><circle class="cls-3" cx="14" cy="170" r="2"/><circle class="cls-2" cx="26" cy="170" r="2"/><circle class="cls-2" cx="38" cy="170" r="2"/><circle class="cls-2" cx="50" cy="170" r="2"/><circle class="cls-2" cx="62" cy="170" r="2"/><circle class="cls-2" cx="74" cy="170" r="2"/><circle class="cls-2" cx="86" cy="170" r="2"/><circle class="cls-3" cx="98" cy="170" r="2"/><circle class="cls-2" cx="110" cy="170" r="2"/><circle class="cls-2" cx="122" cy="170" r="2"/><circle class="cls-3" cx="134" cy="170" r="2"/><circle class="cls-4" cx="146" cy="170" r="2"/><circle class="cls-4" cx="158" cy="170" r="2"/><circle class="cls-4" cx="170" cy="170" r="2"/><circle class="cls-4" cx="182" cy="170" r="2"/><circle class="cls-2" cx="194" cy="170" r="2"/><circle class="cls-4" cx="206" cy="170" r="2"/><circle class="cls-4" cx="218" cy="170" r="2"/><circle class="cls-4" cx="230" cy="170" r="2"/><circle class="cls-4" cx="2" cy="182" r="2"/><circle class="cls-3" cx="14" cy="182" r="2"/><circle class="cls-2" cx="26" cy="182" r="2"/><circle class="cls-3" cx="38" cy="182" r="2"/><circle class="cls-4" cx="50" cy="182" r="2"/><circle class="cls-3" cx="62" cy="182" r="2"/><circle class="cls-3" cx="74" cy="182" r="2"/><circle class="cls-3" cx="86" cy="182" r="2"/><circle class="cls-2" cx="98" cy="182" r="2"/><circle class="cls-2" cx="110" cy="182" r="2"/><circle class="cls-2" cx="122" cy="182" r="2"/><circle class="cls-4" cx="134" cy="182" r="2"/><circle class="cls-2" cx="146" cy="182" r="2"/><circle class="cls-2" cx="158" cy="182" r="2"/><circle class="cls-3" cx="170" cy="182" r="2"/><circle class="cls-2" cx="182" cy="182" r="2"/><circle class="cls-4" cx="194" cy="182" r="2"/><circle class="cls-2" cx="206" cy="182" r="2"/><circle class="cls-3" cx="218" cy="182" r="2"/><circle class="cls-4" cx="230" cy="182" r="2"/><circle class="cls-2" cx="2" cy="194" r="2"/><circle class="cls-4" cx="14" cy="194" r="2"/><circle class="cls-2" cx="26" cy="194" r="2"/><circle class="cls-2" cx="38" cy="194" r="2"/><circle class="cls-4" cx="50" cy="194" r="2"/><circle class="cls-2" cx="62" cy="194" r="2"/><circle class="cls-3" cx="74" cy="194" r="2"/><circle class="cls-4" cx="86" cy="194" r="2"/><circle class="cls-3" cx="98" cy="194" r="2"/><circle class="cls-3" cx="110" cy="194" r="2"/><circle class="cls-3" cx="122" cy="194" r="2"/><circle class="cls-2" cx="134" cy="194" r="2"/><circle class="cls-3" cx="146" cy="194" r="2"/><circle class="cls-2" cx="158" cy="194" r="2"/><circle class="cls-2" cx="170" cy="194" r="2"/><circle class="cls-2" cx="182" cy="194" r="2"/><circle class="cls-4" cx="194" cy="194" r="2"/><circle class="cls-2" cx="206" cy="194" r="2"/><circle class="cls-2" cx="218" cy="194" r="2"/><circle class="cls-3" cx="230" cy="194" r="2"/><circle class="cls-3" cx="2" cy="206" r="2"/><circle class="cls-2" cx="14" cy="206" r="2"/><circle class="cls-3" cx="26" cy="206" r="2"/><circle class="cls-3" cx="38" cy="206" r="2"/><circle class="cls-3" cx="50" cy="206" r="2"/><circle class="cls-3" cx="62" cy="206" r="2"/><circle class="cls-2" cx="74" cy="206" r="2"/><circle class="cls-3" cx="86" cy="206" r="2"/><circle class="cls-2" cx="98" cy="206" r="2"/><circle class="cls-3" cx="110" cy="206" r="2"/><circle class="cls-2" cx="122" cy="206" r="2"/><circle class="cls-2" cx="134" cy="206" r="2"/><circle class="cls-2" cx="146" cy="206" r="2"/><circle class="cls-4" cx="158" cy="206" r="2"/><circle class="cls-2" cx="170" cy="206" r="2"/><circle class="cls-2" cx="182" cy="206" r="2"/><circle class="cls-4" cx="194" cy="206" r="2"/><circle class="cls-2" cx="206" cy="206" r="2"/><circle class="cls-2" cx="218" cy="206" r="2"/><circle class="cls-4" cx="230" cy="206" r="2"/><circle class="cls-4" cx="2" cy="218" r="2"/><circle class="cls-2" cx="14" cy="218" r="2"/><circle class="cls-4" cx="26" cy="218" r="2"/><circle class="cls-2" cx="38" cy="218" r="2"/><circle class="cls-2" cx="50" cy="218" r="2"/><circle class="cls-3" cx="62" cy="218" r="2"/><circle class="cls-4" cx="74" cy="218" r="2"/><circle class="cls-2" cx="86" cy="218" r="2"/><circle class="cls-3" cx="98" cy="218" r="2"/><circle class="cls-4" cx="110" cy="218" r="2"/><circle class="cls-4" cx="122" cy="218" r="2"/><circle class="cls-2" cx="134" cy="218" r="2"/><circle class="cls-4" cx="146" cy="218" r="2"/><circle class="cls-3" cx="158" cy="218" r="2"/><circle class="cls-2" cx="170" cy="218" r="2"/><circle class="cls-2" cx="182" cy="218" r="2"/><circle class="cls-2" cx="194" cy="218" r="2"/><circle class="cls-2" cx="206" cy="218" r="2"/><circle class="cls-2" cx="218" cy="218" r="2"/><circle class="cls-2" cx="230" cy="218" r="2"/><circle class="cls-3" cx="2" cy="230" r="2"/><circle class="cls-2" cx="14" cy="230" r="2"/><circle class="cls-2" cx="26" cy="230" r="2"/><circle class="cls-2" cx="38" cy="230" r="2"/><circle class="cls-4" cx="50" cy="230" r="2"/><circle class="cls-3" cx="62" cy="230" r="2"/><circle class="cls-2" cx="74" cy="230" r="2"/><circle class="cls-2" cx="86" cy="230" r="2"/><circle class="cls-4" cx="98" cy="230" r="2"/><circle class="cls-2" cx="110" cy="230" r="2"/><circle class="cls-4" cx="122" cy="230" r="2"/><circle class="cls-2" cx="134" cy="230" r="2"/><circle class="cls-2" cx="146" cy="230" r="2"/><circle class="cls-3" cx="158" cy="230" r="2"/><circle class="cls-3" cx="170" cy="230" r="2"/><circle class="cls-2" cx="182" cy="230" r="2"/><circle class="cls-3" cx="194" cy="230" r="2"/><circle class="cls-2" cx="206" cy="230" r="2"/><circle class="cls-3" cx="218" cy="230" r="2"/><circle class="cls-2" cx="230" cy="230" r="2"/></g></svg>