<svg width="20" height="20" viewBox="0 0 20 20" fill="none" xmlns="http://www.w3.org/2000/svg">
<path d="M17.5 18.3334H2.5C2.15833 18.3334 1.875 18.05 1.875 17.7084C1.875 17.3667 2.15833 17.0834 2.5 17.0834H17.5C17.8417 17.0834 18.125 17.3667 18.125 17.7084C18.125 18.05 17.8417 18.3334 17.5 18.3334Z" fill="#121212"/>
<path d="M15.4257 3.32419L15.4257 3.3242L15.4279 3.32632C16.1951 4.08592 16.4811 4.73937 16.475 5.34387L16.475 5.34387V5.34993C16.475 5.93089 16.1891 6.57833 15.4279 7.33185L15.4279 7.33183L15.424 7.33576L14.5354 8.23169C12.6383 7.63736 11.1162 6.11651 10.52 4.22012L11.4159 3.32419C12.1819 2.55819 12.8472 2.268 13.4326 2.27179C14.02 2.27559 14.6778 2.57625 15.4257 3.32419Z" fill="#292D32" stroke="#121212" stroke-width="1.2"/>
<path d="M13.0084 9.60829C12.7668 9.49163 12.5334 9.37496 12.3084 9.24163C12.1251 9.13329 11.9501 9.01663 11.7751 8.89163C11.6334 8.79996 11.4668 8.66663 11.3084 8.53329C11.2918 8.52496 11.2334 8.47496 11.1668 8.40829C10.8918 8.17496 10.5834 7.87496 10.3084 7.54163C10.2834 7.52496 10.2418 7.46663 10.1834 7.39163C10.1001 7.29163 9.95844 7.12496 9.83344 6.93329C9.73344 6.80829 9.61677 6.62496 9.50844 6.44163C9.3751 6.21663 9.25844 5.99163 9.14177 5.75829C9.0859 5.63858 9.03577 5.52078 8.98954 5.40581C8.92155 5.23671 8.70322 5.18851 8.57434 5.31739L3.61677 10.275C3.50844 10.3833 3.40844 10.5916 3.38344 10.7333L2.93344 13.925C2.8501 14.4916 3.00844 15.025 3.35844 15.3833C3.65844 15.675 4.0751 15.8333 4.5251 15.8333C4.6251 15.8333 4.7251 15.825 4.8251 15.8083L8.0251 15.3583C8.1751 15.3333 8.38344 15.2333 8.48344 15.125L13.4374 10.171C13.5672 10.0412 13.5179 9.81958 13.3477 9.75081C13.2378 9.70641 13.1259 9.65919 13.0084 9.60829Z" fill="#121212"/>
</svg>
