<svg width="17" height="16" viewBox="0 0 17 16" fill="none" xmlns="http://www.w3.org/2000/svg">
<path d="M4.19332 13.0134C3.78666 13.0134 3.40666 12.8734 3.13332 12.6134C2.78666 12.2867 2.61999 11.7934 2.67999 11.2601L2.92666 9.10005C2.97332 8.69339 3.21999 8.15339 3.50666 7.86005L8.97999 2.06672C10.3467 0.620053 11.7733 0.580053 13.22 1.94672C14.6667 3.31339 14.7067 4.74005 13.34 6.18672L7.86666 11.9801C7.58666 12.2801 7.06666 12.5601 6.65999 12.6267L4.51332 12.9934C4.39999 13.0001 4.29999 13.0134 4.19332 13.0134ZM11.12 1.94005C10.6067 1.94005 10.16 2.26005 9.70666 2.74005L4.23332 8.54005C4.09999 8.68005 3.94666 9.01339 3.91999 9.20672L3.67332 11.3667C3.64666 11.5867 3.69999 11.7667 3.81999 11.8801C3.93999 11.9934 4.11999 12.0334 4.33999 12.0001L6.48666 11.6334C6.67999 11.6001 6.99999 11.4267 7.13332 11.2867L12.6067 5.49339C13.4333 4.61339 13.7333 3.80005 12.5267 2.66672C11.9933 2.15339 11.5333 1.94005 11.12 1.94005Z" fill="#7B7B7B"/>
<path d="M12.06 7.30004C12.0466 7.30004 12.0266 7.30004 12.0133 7.30004C9.9333 7.09338 8.25996 5.51338 7.93996 3.44671C7.89996 3.17338 8.08663 2.92004 8.35996 2.87338C8.6333 2.83338 8.88663 3.02004 8.9333 3.29338C9.18663 4.90671 10.4933 6.14671 12.12 6.30671C12.3933 6.33338 12.5933 6.58004 12.5666 6.85338C12.5333 7.10671 12.3133 7.30004 12.06 7.30004Z" fill="#7B7B7B"/>
<path d="M14.5 15.1667H2.5C2.22667 15.1667 2 14.94 2 14.6667C2 14.3934 2.22667 14.1667 2.5 14.1667H14.5C14.7733 14.1667 15 14.3934 15 14.6667C15 14.94 14.7733 15.1667 14.5 15.1667Z" fill="#7B7B7B"/>
</svg>
