<svg width="40" height="40" viewBox="0 0 40 40" fill="none" xmlns="http://www.w3.org/2000/svg">
<rect width="40" height="40" rx="8" fill="#E7EAEC"/>
<path d="M24.5 20.5625H15.5C15.1925 20.5625 14.9375 20.3075 14.9375 20C14.9375 19.6925 15.1925 19.4375 15.5 19.4375H24.5C24.8075 19.4375 25.0625 19.6925 25.0625 20C25.0625 20.3075 24.8075 20.5625 24.5 20.5625Z" fill="#121212"/>
<path d="M20 25.0625C19.6925 25.0625 19.4375 24.8075 19.4375 24.5V15.5C19.4375 15.1925 19.6925 14.9375 20 14.9375C20.3075 14.9375 20.5625 15.1925 20.5625 15.5V24.5C20.5625 24.8075 20.3075 25.0625 20 25.0625Z" fill="#121212"/>
</svg>
