<svg width="25" height="24" viewBox="0 0 25 24" fill="none" xmlns="http://www.w3.org/2000/svg">
<path d="M16.64 2.96004L7.61 5.96004C1.54 7.99004 1.54 11.3 7.61 13.32L10.29 14.21L11.18 16.89C13.2 22.96 16.52 22.96 18.54 16.89L21.55 7.87004C22.89 3.82004 20.69 1.61004 16.64 2.96004ZM16.96 8.34004L13.16 12.16C13.01 12.31 12.82 12.38 12.63 12.38C12.44 12.38 12.25 12.31 12.1 12.16C11.81 11.87 11.81 11.39 12.1 11.1L15.9 7.28004C16.19 6.99004 16.67 6.99004 16.96 7.28004C17.25 7.57004 17.25 8.05004 16.96 8.34004Z" fill="#00CFCE"/>
</svg>
