<svg width="20" height="20" viewBox="0 0 20 20" fill="none" xmlns="http://www.w3.org/2000/svg">
<path d="M13.7414 18.9583H6.2497C4.81637 18.9583 3.74137 18.575 3.0747 17.8166C2.40804 17.0583 2.1497 15.9583 2.3247 14.5333L3.0747 8.2833C3.29137 6.44163 3.75804 4.79163 7.00804 4.79163H13.008C16.2497 4.79163 16.7164 6.44163 16.9414 8.2833L17.6914 14.5333C17.858 15.9583 17.608 17.0666 16.9414 17.8166C16.2497 18.575 15.183 18.9583 13.7414 18.9583ZM6.9997 6.04163C4.5997 6.04163 4.48303 6.99161 4.30803 8.42495L3.55804 14.6749C3.43304 15.7333 3.58303 16.5083 4.00803 16.9833C4.43303 17.4583 5.18303 17.7 6.2497 17.7H13.7414C14.808 17.7 15.558 17.4583 15.983 16.9833C16.408 16.5083 16.558 15.7333 16.433 14.6749L15.683 8.42495C15.508 6.98328 15.3997 6.04163 12.9914 6.04163H6.9997Z" fill="#00CFCE"/>
<path d="M13.3332 6.69163C13.3312 6.69163 13.3249 6.69105 13.3168 6.68299C13.3087 6.67492 13.3082 6.66864 13.3082 6.66663V3.74996C13.3082 3.17456 13.1272 2.64543 12.7408 2.25903C12.3544 1.87263 11.8252 1.69163 11.2498 1.69163H8.74984C8.17444 1.69163 7.64531 1.87263 7.25891 2.25903C6.87251 2.64543 6.6915 3.17456 6.6915 3.74996V6.66663C6.6915 6.66864 6.69093 6.67492 6.68286 6.68299C6.6748 6.69105 6.66851 6.69163 6.6665 6.69163C6.66449 6.69163 6.65821 6.69105 6.65014 6.68299C6.64208 6.67492 6.6415 6.66864 6.6415 6.66663V3.74996C6.6415 3.09819 6.86768 2.57856 7.22306 2.22318C7.57844 1.86781 8.09806 1.64163 8.74984 1.64163H11.2498C11.9016 1.64163 12.4212 1.86781 12.7766 2.22318C13.132 2.57856 13.3582 3.09819 13.3582 3.74996V6.66663C13.3582 6.66864 13.3576 6.67492 13.3495 6.68299C13.3415 6.69105 13.3352 6.69163 13.3332 6.69163Z" fill="#00CFCE" stroke="#00CFCE" stroke-width="1.2"/>
<path d="M17.0082 14.8167H6.6665C6.32484 14.8167 6.0415 14.5333 6.0415 14.1917C6.0415 13.85 6.32484 13.5667 6.6665 13.5667H17.0082C17.3498 13.5667 17.6332 13.85 17.6332 14.1917C17.6332 14.5333 17.3498 14.8167 17.0082 14.8167Z" fill="#00CFCE"/>
</svg>
