<svg width="17" height="16" viewBox="0 0 17 16" fill="none" xmlns="http://www.w3.org/2000/svg">
<path d="M8.49992 11.1666C8.23325 11.1666 7.96659 11.1466 7.71325 11.1C6.29992 10.8933 5.01325 10.08 4.19992 8.87331C3.63325 8.01998 3.33325 7.02665 3.33325 5.99998C3.33325 3.15331 5.65325 0.833313 8.49992 0.833313C11.3466 0.833313 13.6666 3.15331 13.6666 5.99998C13.6666 7.02665 13.3666 8.01998 12.7999 8.87331C11.9799 10.0866 10.6933 10.8933 9.26659 11.1066C9.03325 11.1466 8.76659 11.1666 8.49992 11.1666ZM8.49992 1.83331C6.19992 1.83331 4.33325 3.69998 4.33325 5.99998C4.33325 6.83331 4.57325 7.63331 5.02659 8.31331C5.68659 9.28665 6.71992 9.93998 7.86659 10.1066C8.29325 10.18 8.71325 10.18 9.10659 10.1066C10.2733 9.93998 11.3066 9.27997 11.9666 8.30664C12.4199 7.62664 12.6599 6.82664 12.6599 5.99331C12.6666 3.69997 10.7999 1.83331 8.49992 1.83331Z" fill="#7B7B7B"/>
<path d="M4.81313 15.06C4.7198 15.06 4.63313 15.0467 4.5398 15.0267C4.10646 14.9267 3.77313 14.5933 3.67313 14.16L3.4398 13.18C3.42646 13.12 3.3798 13.0733 3.31313 13.0533L2.21313 12.7933C1.7998 12.6933 1.47313 12.3867 1.3598 11.98C1.24646 11.5733 1.3598 11.1333 1.6598 10.8333L4.2598 8.23334C4.36646 8.12667 4.51313 8.07334 4.6598 8.08667C4.80646 8.1 4.9398 8.17999 5.02646 8.30666C5.68646 9.27999 6.7198 9.94 7.87313 10.1067C8.2998 10.18 8.7198 10.18 9.11313 10.1067C10.2798 9.94 11.3131 9.27999 11.9731 8.30666C12.0531 8.17999 12.1931 8.1 12.3398 8.08667C12.4865 8.07334 12.6331 8.12667 12.7398 8.23334L15.3398 10.8333C15.6398 11.1333 15.7531 11.5733 15.6398 11.98C15.5265 12.3867 15.1931 12.7 14.7865 12.7933L13.6865 13.0533C13.6265 13.0667 13.5798 13.1133 13.5598 13.18L13.3265 14.16C13.2265 14.5933 12.8931 14.9267 12.4598 15.0267C12.0265 15.1333 11.5798 14.98 11.2998 14.64L8.4998 11.42L5.6998 14.6467C5.47313 14.9133 5.15313 15.06 4.81313 15.06ZM4.5598 9.35333L2.36646 11.5467C2.30646 11.6067 2.31313 11.6733 2.32646 11.7133C2.33313 11.7467 2.36646 11.8133 2.44646 11.8267L3.54646 12.0867C3.9798 12.1867 4.31313 12.52 4.41313 12.9533L4.64646 13.9333C4.66646 14.02 4.73313 14.0467 4.77313 14.06C4.81313 14.0667 4.8798 14.0733 4.9398 14.0067L7.49313 11.0667C6.3598 10.8467 5.3198 10.24 4.5598 9.35333ZM9.50646 11.06L12.0598 13.9933C12.1198 14.0667 12.1931 14.0667 12.2331 14.0533C12.2731 14.0467 12.3331 14.0133 12.3598 13.9267L12.5931 12.9467C12.6931 12.5133 13.0265 12.18 13.4598 12.08L14.5598 11.82C14.6398 11.8 14.6731 11.74 14.6798 11.7067C14.6931 11.6733 14.6998 11.6 14.6398 11.54L12.4465 9.34666C11.6798 10.2333 10.6465 10.84 9.50646 11.06Z" fill="#7B7B7B"/>
<path d="M9.76018 8.59332C9.58684 8.59332 9.38018 8.54665 9.13351 8.39998L8.50018 8.01998L7.86684 8.39331C7.28684 8.73998 6.90684 8.53998 6.76684 8.43998C6.62684 8.33998 6.32684 8.03998 6.48018 7.37998L6.64018 6.69332L6.10684 6.19997C5.81351 5.90664 5.70684 5.55332 5.80684 5.23332C5.90684 4.91332 6.20018 4.68664 6.61351 4.61997L7.32684 4.49998L7.66684 3.75332C7.86018 3.37332 8.16018 3.15997 8.50018 3.15997C8.84018 3.15997 9.14684 3.37999 9.33351 3.75999L9.72684 4.54665L10.3868 4.62665C10.7935 4.69331 11.0868 4.91997 11.1935 5.23997C11.2935 5.55997 11.1868 5.91331 10.8935 6.20664L10.3402 6.75999L10.5135 7.37998C10.6668 8.03998 10.3668 8.33998 10.2268 8.43998C10.1535 8.49998 9.99351 8.59332 9.76018 8.59332ZM6.90684 5.59332L7.36684 6.0533C7.58018 6.26664 7.68684 6.62665 7.62018 6.91998L7.49351 7.45331L8.02684 7.13997C8.31351 6.97331 8.70018 6.97331 8.98018 7.13997L9.51351 7.45331L9.39351 6.91998C9.32684 6.61998 9.42684 6.26664 9.64018 6.0533L10.1002 5.59332L9.52018 5.49331C9.24018 5.44664 8.96018 5.23999 8.83351 4.98665L8.50018 4.33331L8.16684 4.99998C8.04684 5.24665 7.76684 5.45999 7.48684 5.50665L6.90684 5.59332Z" fill="#7B7B7B"/>
</svg>
