<svg width="25" height="24" viewBox="0 0 25 24" fill="none" xmlns="http://www.w3.org/2000/svg">
<path d="M19.04 4.12009L13.54 2.06009C12.97 1.85009 12.04 1.85009 11.47 2.06009L5.97005 4.12009C4.91005 4.52009 4.05005 5.76009 4.05005 6.89009V14.9901C4.05005 15.8001 4.58005 16.8701 5.23005 17.3501L10.73 21.4601C11.7 22.1901 13.29 22.1901 14.26 21.4601L19.76 17.3501C20.41 16.8601 20.9401 15.8001 20.9401 14.9901V6.89009C20.9501 5.76009 20.09 4.52009 19.04 4.12009ZM15.98 9.72009L11.68 14.0201C11.53 14.1701 11.34 14.2401 11.15 14.2401C10.96 14.2401 10.77 14.1701 10.62 14.0201L9.02005 12.4001C8.73005 12.1101 8.73005 11.6301 9.02005 11.3401C9.31005 11.0501 9.79005 11.0501 10.08 11.3401L11.16 12.4201L14.93 8.65009C15.22 8.36009 15.7 8.36009 15.99 8.65009C16.28 8.94009 16.28 9.43009 15.98 9.72009Z" fill="#00CFCE"/>
</svg>
