<svg width="88" height="88" viewBox="0 0 88 88" fill="none" xmlns="http://www.w3.org/2000/svg">
<path d="M55 83.4166H33C13.09 83.4166 4.58331 74.9099 4.58331 54.9999V32.9999C4.58331 13.0899 13.09 4.58325 33 4.58325H55C74.91 4.58325 83.4166 13.0899 83.4166 32.9999V54.9999C83.4166 74.9099 74.91 83.4166 55 83.4166ZM33 10.0833C16.0966 10.0833 10.0833 16.0966 10.0833 32.9999V54.9999C10.0833 71.9033 16.0966 77.9166 33 77.9166H55C71.9033 77.9166 77.9166 71.9033 77.9166 54.9999V32.9999C77.9166 16.0966 71.9033 10.0833 55 10.0833H33Z" fill="#00CFCE"/>
<path d="M38.7933 57.1265C38.06 57.1265 37.3633 56.8332 36.85 56.3199L26.4733 45.9432C25.41 44.8799 25.41 43.1199 26.4733 42.0565C27.5367 40.9932 29.2967 40.9932 30.36 42.0565L38.7933 50.4899L57.64 31.6432C58.7033 30.5799 60.4633 30.5799 61.5267 31.6432C62.59 32.7065 62.59 34.4665 61.5267 35.5299L40.7367 56.3199C40.2233 56.8332 39.5267 57.1265 38.7933 57.1265Z" fill="#00CFCE"/>
</svg>
