<svg width="20" height="20" viewBox="0 0 20 20" fill="none" xmlns="http://www.w3.org/2000/svg">
    <path d="M12.4993 18.9583H7.49935C2.97435 18.9583 1.04102 17.025 1.04102 12.5V7.49996C1.04102 2.97496 2.97435 1.04163 7.49935 1.04163H12.4993C17.0243 1.04163 18.9577 2.97496 18.9577 7.49996V12.5C18.9577 17.025 17.0243 18.9583 12.4993 18.9583ZM7.49935 2.29163C3.65768 2.29163 2.29102 3.65829 2.29102 7.49996V12.5C2.29102 16.3416 3.65768 17.7083 7.49935 17.7083H12.4993C16.341 17.7083 17.7077 16.3416 17.7077 12.5V7.49996C17.7077 3.65829 16.341 2.29163 12.4993 2.29163H7.49935Z" fill="#474747"/>
    <path d="M18.3327 10.625H1.66602C1.32435 10.625 1.04102 10.3417 1.04102 10C1.04102 9.65833 1.32435 9.375 1.66602 9.375H18.3327C18.6744 9.375 18.9577 9.65833 18.9577 10C18.9577 10.3417 18.6744 10.625 18.3327 10.625Z" fill="#474747"/>
    <path d="M6.875 18.5417C6.53333 18.5417 6.25 18.2583 6.25 17.9167V10C6.25 9.65833 6.53333 9.375 6.875 9.375C7.21667 9.375 7.5 9.65833 7.5 10V17.9167C7.5 18.2583 7.21667 18.5417 6.875 18.5417Z" fill="#474747"/>
    <path d="M13.125 18.9583C12.7833 18.9583 12.5 18.675 12.5 18.3333V10C12.5 9.65833 12.7833 9.375 13.125 9.375C13.4667 9.375 13.75 9.65833 13.75 10V18.3333C13.75 18.675 13.4667 18.9583 13.125 18.9583Z" fill="#474747"/>
    <path d="M6.875 10.625C6.53333 10.625 6.25 10.3416 6.25 9.99996V1.66663C6.25 1.32496 6.53333 1.04163 6.875 1.04163C7.21667 1.04163 7.5 1.32496 7.5 1.66663V9.99996C7.5 10.3416 7.21667 10.625 6.875 10.625Z" fill="#292D32"/>
    <path d="M13.125 10.625C12.7833 10.625 12.5 10.3417 12.5 10V2.1167C12.5 1.77503 12.7833 1.4917 13.125 1.4917C13.4667 1.4917 13.75 1.77503 13.75 2.1167V10C13.75 10.3417 13.4667 10.625 13.125 10.625Z" fill="#292D32"/>
</svg>
