<svg width="40" height="40" viewBox="0 0 40 40" fill="none" xmlns="http://www.w3.org/2000/svg">
    <path d="M25.25 27.3125H14.75C14.4425 27.3125 14.1875 27.0575 14.1875 26.75C14.1875 26.4425 14.4425 26.1875 14.75 26.1875H25.25C25.5575 26.1875 25.8125 26.4425 25.8125 26.75C25.8125 27.0575 25.5575 27.3125 25.25 27.3125Z" fill="#121212"/>
    <path d="M20 24.3125C16.7975 24.3125 14.1875 21.7025 14.1875 18.5V13.25C14.1875 12.9425 14.4425 12.6875 14.75 12.6875C15.0575 12.6875 15.3125 12.9425 15.3125 13.25V18.5C15.3125 21.0875 17.4125 23.1875 20 23.1875C22.5875 23.1875 24.6875 21.0875 24.6875 18.5V13.25C24.6875 12.9425 24.9425 12.6875 25.25 12.6875C25.5575 12.6875 25.8125 12.9425 25.8125 13.25V18.5C25.8125 21.7025 23.2025 24.3125 20 24.3125Z" fill="#121212"/>
</svg>
