<svg width="80" height="80" viewBox="0 0 80 80" fill="none" xmlns="http://www.w3.org/2000/svg">
<rect width="80" height="80" rx="16" fill="#73797C" fill-opacity="0.07"/>
<path d="M64.0777 29.361C65.1159 30.8526 63.8705 32.6678 62.0532 32.6678H15.957C14.5073 32.6678 13.332 31.4926 13.332 30.0428V25.1211C13.332 18.6145 18.612 13.3345 25.1187 13.3345H31.3054C35.652 13.3345 37.012 14.7478 38.7454 17.0678L42.4787 22.0278C43.3054 23.1211 43.412 23.2545 44.9587 23.2545H52.3987C57.2321 23.2545 61.5072 25.6678 64.0777 29.361Z" fill="#00CFCE"/>
<path d="M63.9959 36.6648C65.4422 36.6648 66.616 37.8347 66.6209 39.2809L66.6654 52.3988C66.6654 60.2655 60.2654 66.6655 52.3987 66.6655H27.5987C19.732 66.6655 13.332 60.2655 13.332 52.3988V39.2905C13.332 37.8407 14.5073 36.6655 15.957 36.6655L63.9959 36.6648Z" fill="#00CFCE"/>
</svg>
