<svg width="61" height="61" viewBox="0 0 61 61" fill="none" xmlns="http://www.w3.org/2000/svg">
<path d="M25.8937 30.315C32.7972 30.315 38.3937 24.7185 38.3937 17.815C38.3937 10.9114 32.7972 5.31497 25.8937 5.31497C18.9902 5.31497 13.3937 10.9114 13.3937 17.815C13.3937 24.7185 18.9902 30.315 25.8937 30.315Z" stroke="black" stroke-width="3.75" stroke-linecap="round" stroke-linejoin="round"/>
<path d="M2.89569 55.315C4.32164 50.398 7.26557 46.0577 11.3066 42.9147C15.3477 39.7717 20.2791 37.9867 25.3957 37.815C35.6957 37.815 44.4707 45.09 47.8957 55.315" stroke="black" stroke-width="3.75" stroke-linecap="round" stroke-linejoin="round"/>
<path d="M44.9469 11.4151C46.8512 12.3914 48.3922 13.9529 49.3432 15.8701C50.2942 17.7872 50.6052 19.9588 50.2302 22.0658C49.8552 24.1727 48.8142 26.1037 47.2602 27.5752C45.7064 29.0465 43.7212 29.9805 41.5969 30.24" stroke="black" stroke-width="3.75" stroke-linecap="round" stroke-linejoin="round"/>
<path d="M43.6964 36.7402C47.0314 37.59 50.0904 39.2857 52.5779 41.664C55.0657 44.042 56.8974 47.0217 57.8964 50.315" stroke="black" stroke-width="3.75" stroke-linecap="round" stroke-linejoin="round"/>
</svg>
